<?xml version="1.0" encoding="utf-8"?>
<!-- Generator: Adobe Illustrator 21.0.2, SVG Export Plug-In . SVG Version: 6.00 Build 0)  -->
<svg version="1.1" id="Layer_1" xmlns="http://www.w3.org/2000/svg" xmlns:xlink="http://www.w3.org/1999/xlink" x="0px" y="0px"
	 width="702px" height="101px" viewBox="0 0 702 101" style="enable-background:new 0 0 702 101;" xml:space="preserve">
<style type="text/css">
	.st0{fill:#FFB606;}
	.st1{fill:#FFFFFF;}
</style>
<polygon id="Fill-1" class="st0" points="-0.1,-62.4 100.9,-62.4 100.9,-163.3 -0.1,-163.3 "/>
<path class="st1" d="M95.3-124.7l-44.7-12.7c-0.2,0-0.4,0-0.5,0L5.4-124.7c-0.4,0.1-0.7,0.5-0.7,0.9c0,0.4,0.2,0.8,0.6,1l21.6,8.3
	l-0.8,6c-0.2,1.4,0.5,2.8,1.8,3.6c4.1,2.5,17.1,8.8,21,9.7c0.6,0.2,1.1,0.2,1.7,0.2c0.6,0,1.1-0.1,1.7-0.2c3.9-0.9,16.9-7.2,21-9.7
	c1.3-0.7,2-2.2,1.8-3.6l-0.8-6.2l4.8-1.9v18.8c-1.6,0.4-2.7,1.9-2.7,3.6c0,1.2,0.6,2.3,1.5,2.9c-0.2,1-0.5,2-0.7,3
	c-0.1,0.1-0.1,0.2-0.1,0.4c-0.5,1.9-1.1,3.7-1.8,5.6c-0.1,0.3-0.1,0.6,0.1,0.9c0.2,0.3,0.4,0.4,0.7,0.5c1.3,0.1,2.7,0.2,4,0.2
	s2.7-0.1,4-0.2c0.3,0,0.6-0.2,0.7-0.5s0.2-0.6,0.1-0.9c-1-2.9-1.9-5.9-2.6-8.9c0.9-0.7,1.5-1.7,1.5-2.9c0-1.7-1.1-3.1-2.7-3.6v-19.5
	l14.3-5.5c0.4-0.2,0.7-0.5,0.6-1C96-124.2,95.7-124.6,95.3-124.7z M77.6-82.9c0.4-1.3,0.9-2.6,1.2-4h2.6c0.4,1.3,0.8,2.7,1.2,4
	C81-82.8,79.3-82.8,77.6-82.9z M80.9-88.9h-1.6c0.1-0.6,0.3-1.1,0.4-1.7c0.1,0,0.2,0,0.4,0c0.1,0,0.2,0,0.4,0
	C80.6-90,80.8-89.4,80.9-88.9z M81.8-94.2c0,0.9-0.8,1.7-1.7,1.7s-1.7-0.8-1.7-1.7c0-0.9,0.8-1.7,1.7-1.7S81.8-95.2,81.8-94.2z
	 M72.5-113.2l-8.5,3.3c-0.5,0.2-0.8,0.8-0.6,1.3c0.2,0.4,0.5,0.6,0.9,0.6c0.1,0,0.2,0,0.4-0.1l8.1-3.1l0.1,1.1l-4.1,1.6
	c-0.5,0.2-0.8,0.8-0.6,1.3c0.2,0.4,0.5,0.6,0.9,0.6c0.1,0,0.2,0,0.4-0.1l3.6-1.4c0,0.6-0.3,1.1-0.9,1.5c0,0,0,0,0,0
	c-4.3,2.7-17,8.7-20.4,9.5c0,0,0,0,0,0c-0.8,0.2-1.6,0.2-2.4,0c0,0,0,0,0,0C46-97.9,33.3-104,29-106.6c0,0,0,0,0,0
	c-0.5-0.3-0.8-0.7-0.9-1.2l3.1,1.2c0.1,0,0.2,0.1,0.4,0.1c0.4,0,0.8-0.2,0.9-0.6c0.2-0.5-0.1-1.1-0.6-1.3l-3.6-1.4l0.1-1.1l7.6,2.9
	c0.1,0,0.2,0.1,0.4,0.1c0.4,0,0.8-0.2,0.9-0.6c0.2-0.5-0.1-1.1-0.6-1.3l-8-3.1l0.1-0.8l21.2,8.2c0.1,0,0.2,0.1,0.4,0.1
	s0.2,0,0.4-0.1l21.7-8.4L72.5-113.2z M79.4-118.8l-28.8-6c-0.5-0.1-1.1,0.2-1.2,0.8s0.2,1.1,0.8,1.2l25.8,5.3l-25.6,9.9l-41.6-16
	l41.6-11.8l41.6,11.8L79.4-118.8z"/>
<polygon id="Fill-1_1_" class="st0" points="0,101 101,101 101,0.1 0,0.1 "/>
<g>
	<path class="st1" d="M87.6,57v-8.7l8.4-4.6L50.5,19.4L5,43.7l18.1,10.5v6.2v0.5c0,0,0.1,0,0.2-0.1c-0.2,0.3-0.3,0.5-0.3,0.8
		c0,3,12.3,5.5,27.5,5.5c15.2,0,27.5-2.5,27.5-5.5c0-0.3-0.1-0.5-0.3-0.8c0.1,0,0.1,0,0.2,0.1v-0.5v-6.2l7.9-4.9V57
		c-0.9,0.4-1.5,1.2-1.5,2.2c0,1.3,1.1,2.4,2.4,2.4c1.3,0,2.4-1.1,2.4-2.4C89.1,58.2,88.4,57.4,87.6,57z M50.5,65
		c-13.5,0-24.4-1.5-24.4-3.4c0-1.9,10.9-3.4,24.4-3.4c13.5,0,24.4,1.5,24.4,3.4C74.9,63.5,64,65,50.5,65z M77.3,49.1
		c-1.8-1.9-8.3-7-26.8-7c-18.4,0-25,5.1-26.8,7v-1.8c0,0,5.3-7.9,26.8-7.9c21.5,0,26.8,7.9,26.8,7.9V49.1z"/>
	<path class="st1" d="M84.7,62.1l-1,13.5c2.9-4.5,5.3-2.8,5.3-2.8V62.1C85.9,63.3,84.7,62.1,84.7,62.1z"/>
</g>
<g>
	<path d="M170.4,51.1c0,5.5-1.5,9.9-4.6,13.1c-3.1,3.3-7.2,4.9-12.3,4.9c-5.2,0-9.4-1.6-12.6-4.9s-4.8-7.7-4.8-13.1v-21h9.4v21
		c0,2.9,0.7,5.2,2.2,6.9c1.4,1.7,3.4,2.5,5.8,2.5c2.3,0,4.1-0.8,5.5-2.5s2.1-4,2.1-6.9v-21h9.4V51.1z"/>
	<path d="M214.7,68.3H207l-19.3-22.1v22.1h-9.4V30.1h7.8l19.3,22.8V30.1h9.3V68.3z"/>
	<path d="M222.7,68.3V30.1h9.4v38.2H222.7z"/>
	<path d="M262.5,68.3h-9.1l-16.2-38.2h10.4L258,55.4l10.4-25.3h10.4L262.5,68.3z"/>
	<path d="M313.6,68.3h-29.8V30.1h29.6v8.1h-20.2v7.2h18.5V53h-18.5v7.2h20.4V68.3z"/>
	<path d="M344.5,68.3L333,55.2h-2.7v13.1h-9.4V30.1h19.3c4.1,0,7.5,1.1,10,3.4c2.5,2.3,3.8,5.3,3.8,9c0,3.1-0.9,5.7-2.7,7.9
		s-4.2,3.6-7.4,4.2l12,13.6H344.5z M339.1,47.3c1.7,0,3-0.4,4-1.3c1-0.8,1.5-2,1.5-3.4c0-1.4-0.5-2.5-1.5-3.3c-1-0.8-2.3-1.3-4-1.3
		h-8.9v9.2H339.1z"/>
	<path d="M385.9,32.2c2.8,2,4.6,4.7,5.3,8.1l-9.2,1.9c-0.3-1.7-1.1-3-2.4-4c-1.3-0.9-2.7-1.4-4.3-1.4c-1.5,0-2.8,0.4-3.7,1.1
		s-1.4,1.7-1.4,2.8c0,1.7,1,2.7,3.1,3.2l7.9,1.8c7,1.6,10.5,5.3,10.5,11.1c0,3.9-1.5,7-4.5,9.1c-3,2.2-6.7,3.2-11.2,3.2
		c-4.4,0-8.2-1-11.3-3c-3.1-2-4.9-4.9-5.4-8.5l9.7-1.9c0.9,3.8,3.4,5.6,7.5,5.6c1.7,0,3.1-0.4,4.1-1.1c1-0.7,1.5-1.7,1.5-2.9
		c0-0.9-0.3-1.6-0.8-2.2c-0.5-0.5-1.4-0.9-2.8-1.2l-8-1.7c-6.8-1.6-10.3-5.2-10.3-11.1c0-3.7,1.4-6.6,4.2-8.8
		c2.8-2.2,6.4-3.2,10.9-3.2C379.6,29.3,383.1,30.2,385.9,32.2z"/>
	<path d="M398.6,68.3V30.1h9.4v38.2H398.6z"/>
	<path d="M435.6,38.3v30h-9.3v-30h-12.4v-8.2h34.1v8.2H435.6z"/>
	<path d="M475.2,68.3h-9.6V56.5l-14.8-26.3h10.3l9.4,16.8l9.3-16.8h10.5l-15.1,26.2V68.3z"/>
	<path d="M528.9,37.1v31.2h-7.8V37.1h-12.7v-7h33.2v7H528.9z"/>
	<path d="M572.8,42.3c2.1,2.2,3.1,5.1,3.1,8.6v17.3h-7.5V52.6c0-2-0.5-3.6-1.6-4.8c-1-1.2-2.4-1.8-4.2-1.8c-4.7,0-7.1,3.3-7.1,9.8
		v12.6h-7.5v-41h7.5v15.2c2.3-2.3,5.3-3.4,9-3.4C568,39,570.7,40.1,572.8,42.3z"/>
	<path d="M611.5,56.1h-21.7c0.4,2,1.2,3.6,2.5,4.8c1.3,1.2,2.8,1.8,4.6,1.8c3.2,0,5.6-1.3,7.1-3.8l6.7,1.4c-1.2,2.9-3,5.1-5.4,6.6
		c-2.4,1.5-5.2,2.2-8.4,2.2c-4.1,0-7.6-1.4-10.4-4.2s-4.2-6.4-4.2-10.8c0-4.4,1.4-8,4.2-10.9s6.3-4.2,10.5-4.2c3.9,0,7.2,1.4,10,4.1
		c2.8,2.7,4.3,6.2,4.4,10.5V56.1z M592.7,46.9c-1.3,0.9-2.2,2.2-2.7,3.9h13.7c-0.5-1.7-1.3-3.1-2.5-3.9c-1.2-0.9-2.6-1.3-4.2-1.3
		C595.5,45.6,594,46,592.7,46.9z"/>
	<path d="M662.1,42.2c2.2,2.1,3.2,4.9,3.2,8.3v17.8h-7.5V52.1c0-1.9-0.5-3.4-1.6-4.5c-1.1-1.1-2.4-1.7-4-1.7c-2.1,0-3.7,0.7-4.8,2.2
		c-1.2,1.5-1.8,3.6-1.8,6.5v13.7h-7.5V52.1c0-1.9-0.5-3.4-1.6-4.5c-1.1-1.1-2.4-1.7-4-1.7c-2.1,0-3.6,0.7-4.8,2.2s-1.7,3.6-1.7,6.6
		v13.7h-7.5V39.9h7.5v2.3c2.1-2.1,5-3.2,8.5-3.2c4.1,0,7.2,1.6,9.3,4.7c2.5-3.1,6-4.7,10.4-4.7C657.3,39,659.9,40.1,662.1,42.2z"/>
	<path d="M700.9,56.1h-21.7c0.4,2,1.2,3.6,2.5,4.8c1.3,1.2,2.8,1.8,4.6,1.8c3.2,0,5.6-1.3,7.1-3.8l6.7,1.4c-1.2,2.9-3,5.1-5.4,6.6
		c-2.4,1.5-5.2,2.2-8.4,2.2c-4.1,0-7.6-1.4-10.4-4.2s-4.2-6.4-4.2-10.8c0-4.4,1.4-8,4.2-10.9s6.3-4.2,10.5-4.2c3.9,0,7.2,1.4,10,4.1
		c2.8,2.7,4.3,6.2,4.4,10.5V56.1z M682.1,46.9c-1.3,0.9-2.2,2.2-2.7,3.9h13.7c-0.5-1.7-1.3-3.1-2.5-3.9c-1.2-0.9-2.6-1.3-4.2-1.3
		C684.9,45.6,683.4,46,682.1,46.9z"/>
</g>
<g>
	<path d="M169.4-112.3c0,5.2-1.5,9.4-4.4,12.6c-2.9,3.2-6.8,4.8-11.5,4.8c-4.8,0-8.7-1.6-11.7-4.8c-2.9-3.2-4.4-7.4-4.4-12.6v-21.5
		h4.5v21.5c0,4,1.1,7.1,3.2,9.5c2.1,2.4,4.9,3.6,8.4,3.6c3.4,0,6.2-1.2,8.3-3.6c2.1-2.4,3.1-5.6,3.1-9.5v-21.5h4.5V-112.3z"/>
	<path d="M213.7-95.6h-3.9l-25-30.3v30.3h-4.5v-38.2h3.9l25,30.7v-30.7h4.5V-95.6z"/>
	<path d="M225.1-95.6v-38.2h4.5v38.2H225.1z"/>
	<path d="M257.9-95.6h-4.3l-16.6-38.2h4.9l13.9,32l13.9-32h4.9L257.9-95.6z"/>
	<path d="M309.8-95.6H282v-38.2h27.8v4h-23.3v12.9h21.7v4h-21.7v13.1h23.4V-95.6z"/>
	<path d="M345.7-95.6L331.2-112h-7v16.4h-4.5v-38.2h17.7c3.7,0,6.7,1,9,3c2.3,2,3.4,4.6,3.4,7.9c0,3.3-1.1,5.9-3.4,7.9
		c-2.3,2-5.3,3-9,3h-0.7l14.8,16.4H345.7z M337.3-116.1c2.4,0,4.3-0.6,5.8-1.9c1.5-1.3,2.2-2.9,2.2-5c0-2.1-0.7-3.7-2.2-5
		c-1.5-1.3-3.4-1.9-5.8-1.9h-13.2v13.7H337.3z"/>
	<path d="M381.2-131.7c2.6,1.9,4.2,4.4,4.8,7.6l-4.5,1c-0.4-2.3-1.5-4.2-3.3-5.5s-4-2.1-6.6-2.1c-2.6,0-4.7,0.6-6.3,1.9
		c-1.6,1.3-2.4,2.9-2.4,5c0,1.6,0.5,2.9,1.5,3.8c1,0.9,2.4,1.5,4.3,1.9l8.3,1.9c6.4,1.4,9.6,4.7,9.6,9.9c0,3.5-1.3,6.2-3.9,8.3
		c-2.6,2.1-6,3.1-10.3,3.1c-4.1,0-7.6-1-10.5-3c-2.9-2-4.5-4.8-5-8.4l4.7-1c0.4,2.7,1.6,4.7,3.6,6.2c2,1.5,4.5,2.2,7.5,2.2
		c2.9,0,5.2-0.7,6.8-2c1.7-1.3,2.5-3,2.5-5.2c0-1.7-0.5-3.1-1.5-3.9c-1-0.9-2.6-1.6-4.8-2.1l-8.6-1.9c-6.1-1.4-9.2-4.6-9.2-9.7
		c0-3.3,1.2-5.9,3.7-7.9c2.5-2,5.8-3,9.8-3C375.5-134.5,378.7-133.6,381.2-131.7z"/>
	<path d="M396.1-95.6v-38.2h4.5v38.2H396.1z"/>
	<path d="M427.1-129.8v34.1h-4.6v-34.1h-14.2v-4h32.9v4H427.1z"/>
	<path d="M465.4-95.6h-4.5V-109l-15.8-24.9h5l13,20.4l13-20.4h5.2L465.4-109V-95.6z"/>
	<path d="M517.1-133.8c6.5,0,11.7,1.8,15.5,5.4s5.7,8.2,5.7,13.7c0,5.5-1.9,10.1-5.7,13.7c-3.8,3.6-8.9,5.4-15.5,5.4h-12.7v-38.2
		H517.1z M517-99.7c5.2,0,9.3-1.4,12.2-4.2s4.4-6.4,4.4-10.8c0-4.4-1.5-8-4.4-10.8s-7-4.2-12.2-4.2h-8.1v30H517z"/>
	<path d="M547.7-95.6v-38.2h4.5v38.2H547.7z"/>
	<path d="M585.8-131.7c2.6,1.9,4.2,4.4,4.8,7.6l-4.5,1c-0.4-2.3-1.5-4.2-3.3-5.5s-4-2.1-6.6-2.1c-2.6,0-4.7,0.6-6.3,1.9
		c-1.6,1.3-2.4,2.9-2.4,5c0,1.6,0.5,2.9,1.5,3.8c1,0.9,2.4,1.5,4.3,1.9l8.3,1.9c6.4,1.4,9.6,4.7,9.6,9.9c0,3.5-1.3,6.2-3.9,8.3
		c-2.6,2.1-6,3.1-10.3,3.1c-4.1,0-7.6-1-10.5-3c-2.9-2-4.5-4.8-5-8.4l4.7-1c0.4,2.7,1.6,4.7,3.6,6.2c2,1.5,4.5,2.2,7.5,2.2
		c2.9,0,5.2-0.7,6.8-2c1.7-1.3,2.5-3,2.5-5.2c0-1.7-0.5-3.1-1.5-3.9c-1-0.9-2.6-1.6-4.8-2.1l-8.6-1.9c-6.1-1.4-9.2-4.6-9.2-9.7
		c0-3.3,1.2-5.9,3.7-7.9c2.5-2,5.8-3,9.8-3C580.1-134.5,583.2-133.6,585.8-131.7z"/>
	<path d="M614.7-129.8v34.1h-4.6v-34.1H596v-4h32.9v4H614.7z"/>
	<path d="M662.8-95.6L648.2-112h-7v16.4h-4.5v-38.2h17.7c3.7,0,6.7,1,9,3c2.3,2,3.4,4.6,3.4,7.9c0,3.3-1.1,5.9-3.4,7.9
		c-2.3,2-5.3,3-9,3h-0.7l14.8,16.4H662.8z M654.3-116.1c2.4,0,4.3-0.6,5.8-1.9c1.5-1.3,2.2-2.9,2.2-5c0-2.1-0.7-3.7-2.2-5
		c-1.5-1.3-3.4-1.9-5.8-1.9h-13.2v13.7H654.3z"/>
	<path d="M707.6-128.8c3.8,3.8,5.7,8.5,5.7,14.1c0,5.5-1.9,10.2-5.7,14.1s-8.5,5.8-14,5.8c-5.5,0-10.2-1.9-14.1-5.8
		s-5.7-8.5-5.7-14.1c0-5.5,1.9-10.2,5.7-14.1c3.8-3.8,8.5-5.8,14.1-5.8C699.1-134.5,703.7-132.6,707.6-128.8z M704.3-103.6
		c2.9-3,4.4-6.7,4.4-11.1c0-4.4-1.5-8.1-4.4-11.1c-2.9-3-6.5-4.5-10.8-4.5c-4.3,0-7.9,1.5-10.8,4.5c-2.9,3-4.4,6.7-4.4,11.1
		c0,4.4,1.5,8.1,4.4,11.1c2.9,3,6.5,4.5,10.8,4.5C697.8-99.1,701.4-100.6,704.3-103.6z"/>
</g>
<polygon id="Fill-1_3_" class="st0" points="876.9,-62.4 977.9,-62.4 977.9,-163.3 876.9,-163.3 "/>
<path class="st1" d="M972.3-124.7l-44.7-12.7c-0.2,0-0.4,0-0.5,0l-44.7,12.7c-0.4,0.1-0.7,0.5-0.7,0.9c0,0.4,0.2,0.8,0.6,1l21.6,8.3
	l-0.8,6c-0.2,1.4,0.5,2.8,1.8,3.6c4.1,2.5,17.1,8.8,21,9.7c0.6,0.2,1.1,0.2,1.7,0.2c0.6,0,1.1-0.1,1.7-0.2c3.9-0.9,16.9-7.2,21-9.7
	c1.3-0.7,2-2.2,1.8-3.6l-0.8-6.2l4.8-1.9v18.8c-1.6,0.4-2.7,1.9-2.7,3.6c0,1.2,0.6,2.3,1.5,2.9c-0.2,1-0.5,2-0.7,3
	c-0.1,0.1-0.1,0.2-0.1,0.4c-0.5,1.9-1.1,3.7-1.8,5.6c-0.1,0.3-0.1,0.6,0.1,0.9c0.2,0.3,0.4,0.4,0.7,0.5c1.3,0.1,2.7,0.2,4,0.2
	s2.7-0.1,4-0.2c0.3,0,0.6-0.2,0.7-0.5c0.2-0.3,0.2-0.6,0.1-0.9c-1-2.9-1.9-5.9-2.6-8.9c0.9-0.7,1.5-1.7,1.5-2.9
	c0-1.7-1.1-3.1-2.7-3.6v-19.5l14.3-5.5c0.4-0.2,0.7-0.5,0.6-1C973-124.2,972.7-124.6,972.3-124.7z M954.6-82.9
	c0.4-1.3,0.9-2.6,1.2-4h2.6c0.4,1.3,0.8,2.7,1.2,4C958-82.8,956.3-82.8,954.6-82.9z M957.9-88.9h-1.6c0.1-0.6,0.3-1.1,0.4-1.7
	c0.1,0,0.2,0,0.4,0s0.2,0,0.4,0C957.6-90,957.8-89.4,957.9-88.9z M958.8-94.2c0,0.9-0.8,1.7-1.7,1.7s-1.7-0.8-1.7-1.7
	c0-0.9,0.8-1.7,1.7-1.7S958.8-95.2,958.8-94.2z M949.5-113.2l-8.5,3.3c-0.5,0.2-0.8,0.8-0.6,1.3c0.2,0.4,0.5,0.6,0.9,0.6
	c0.1,0,0.2,0,0.4-0.1l8.1-3.1l0.1,1.1l-4.1,1.6c-0.5,0.2-0.8,0.8-0.6,1.3c0.2,0.4,0.5,0.6,0.9,0.6c0.1,0,0.2,0,0.4-0.1l3.6-1.4
	c0,0.6-0.3,1.1-0.9,1.5c0,0,0,0,0,0c-4.3,2.7-17,8.7-20.4,9.5c0,0,0,0,0,0c-0.8,0.2-1.6,0.2-2.4,0c0,0,0,0,0,0
	c-3.4-0.8-16.1-6.8-20.4-9.5c0,0,0,0,0,0c-0.5-0.3-0.8-0.7-0.9-1.2l3.1,1.2c0.1,0,0.2,0.1,0.4,0.1c0.4,0,0.8-0.2,0.9-0.6
	c0.2-0.5-0.1-1.1-0.6-1.3l-3.6-1.4l0.1-1.1l7.6,2.9c0.1,0,0.2,0.1,0.4,0.1c0.4,0,0.8-0.2,0.9-0.6c0.2-0.5-0.1-1.1-0.6-1.3l-8-3.1
	l0.1-0.8l21.2,8.2c0.1,0,0.2,0.1,0.4,0.1s0.2,0,0.4-0.1l21.7-8.4L949.5-113.2z M956.4-118.8l-28.8-6c-0.5-0.1-1.1,0.2-1.2,0.8
	s0.2,1.1,0.8,1.2l25.8,5.3l-25.6,9.9l-41.6-16l41.6-11.8l41.6,11.8L956.4-118.8z"/>
<polygon id="Fill-1_2_" class="st0" points="877,101 978,101 978,0 877,0 "/>
<g>
	<path class="st1" d="M964.6,60v-8.7l8.4-4.6l-45.5-24.3L882,46.7l18.1,10.5v6.2v0.5c0,0,0.1,0,0.2-0.1c-0.2,0.3-0.3,0.5-0.3,0.8
		c0,3,12.3,5.5,27.5,5.5c15.2,0,27.5-2.5,27.5-5.5c0-0.3-0.1-0.5-0.3-0.8c0.1,0,0.1,0,0.2,0.1v-0.5v-6.2l7.9-4.9V60
		c-0.9,0.4-1.5,1.2-1.5,2.2c0,1.3,1.1,2.4,2.4,2.4c1.3,0,2.4-1.1,2.4-2.4C966.1,61.2,965.4,60.4,964.6,60z M927.5,68
		c-13.5,0-24.4-1.5-24.4-3.4c0-1.9,10.9-3.4,24.4-3.4c13.5,0,24.4,1.5,24.4,3.4C951.9,66.5,941,68,927.5,68z M954.3,52.1
		c-1.8-1.9-8.3-7-26.8-7c-18.4,0-25,5.1-26.8,7v-1.8c0,0,5.3-7.9,26.8-7.9c21.5,0,26.8,7.9,26.8,7.9V52.1z"/>
	<path class="st1" d="M961.7,65.1l-1,13.5c2.9-4.5,5.3-2.8,5.3-2.8V65.1C962.9,66.3,961.7,65.1,961.7,65.1z"/>
</g>
<text transform="matrix(1 0 0 1 1009.9037 74.3867)"><tspan x="0" y="0" style="font-family:'SFUIDisplay-Bold'; font-size:57px; letter-spacing:1;">UNIVER</tspan><tspan x="212.3" y="0" style="font-family:'SFUIDisplay-Bold'; font-size:57px;">S</tspan><tspan x="248.8" y="0" style="font-family:'SFUIDisplay-Bold'; font-size:57px; letter-spacing:-4;">A</tspan><tspan x="284.1" y="0" style="font-family:'SFUIDisplay-Bold'; font-size:57px; letter-spacing:1;">TY DISTRO</tspan></text>
<text transform="matrix(1 0 0 1 1009.9037 -95.6133)"><tspan x="0" y="0" style="font-family:'PTSans-Regular'; font-size:57px; letter-spacing:1;">UNIVERS</tspan><tspan x="228.8" y="0" style="font-family:'PTSans-Regular'; font-size:57px; letter-spacing:-2;">A</tspan><tspan x="259.7" y="0" style="font-family:'PTSans-Regular'; font-size:57px;">T</tspan><tspan x="292" y="0" style="font-family:'PTSans-Regular'; font-size:57px;">Y</tspan><tspan x="323.8" y="0" style="font-family:'PTSans-Regular'; font-size:57px; letter-spacing:1;"> DIST</tspan><tspan x="461.6" y="0" style="font-family:'PTSans-Regular'; font-size:57px; letter-spacing:-1;">R</tspan><tspan x="494.4" y="0" style="font-family:'PTSans-Regular'; font-size:57px; letter-spacing:1;">O</tspan></text>
</svg>
