<?xml version="1.0" encoding="UTF-8"?><svg width="370" height="332" viewBox="0 0 370 332" xmlns="http://www.w3.org/2000/svg" xmlns:xlink="http://www.w3.org/1999/xlink"><svg width="35" height="35" viewBox="-5 -5 35 35" id="bars" x="335" y="70" xmlns="http://www.w3.org/2000/svg"><title>bars</title><g transform="translate(.532)" fill="#000" fill-rule="evenodd"><path d="M23.204.06H.835C.43.06.107.4.107.823s.323.762.728.762h22.37c.404 0 .728-.34.728-.762s-.324-.761-.729-.761M23.204 7.865H.835c-.405 0-.728.339-.728.761 0 .423.323.762.728.762h22.37c.404 0 .728-.34.728-.762s-.324-.761-.729-.761M23.204 23.473H.835c-.405 0-.728.34-.728.761 0 .423.323.762.728.762h22.37c.404 0 .728-.34.728-.762s-.324-.761-.729-.761M23.204 15.669H.835c-.405 0-.728.339-.728.761 0 .423.323.762.728.762h22.37c.404 0 .728-.34.728-.762s-.324-.761-.729-.761"/></g></svg><svg width="35" height="35" viewBox="-5 -5 35 35" id="bars-turquoise" x="273" y="291" xmlns="http://www.w3.org/2000/svg"><title>bars-turquoise</title><g transform="translate(.532)" fill="#FFB606" fill-rule="evenodd"><path d="M23.204.06H.835C.43.06.107.4.107.823s.323.762.728.762h22.37c.404 0 .728-.34.728-.762s-.324-.761-.729-.761M23.204 7.865H.835c-.405 0-.728.339-.728.761 0 .423.323.762.728.762h22.37c.404 0 .728-.34.728-.762s-.324-.761-.729-.761M23.204 23.473H.835c-.405 0-.728.34-.728.761 0 .423.323.762.728.762h22.37c.404 0 .728-.34.728-.762s-.324-.761-.729-.761M23.204 15.669H.835c-.405 0-.728.339-.728.761 0 .423.323.762.728.762h22.37c.404 0 .728-.34.728-.762s-.324-.761-.729-.761"/></g></svg><svg width="45" height="44" viewBox="-5 -5 45 44" id="calendar" x="289" y="46" xmlns="http://www.w3.org/2000/svg"><title>calendar</title><g transform="translate(0 -1)" fill="#FFB606" fill-rule="evenodd"><path d="M31.24 4.132h-4.618V2.047c0-.578-.479-1.047-1.066-1.047-.588 0-1.066.469-1.066 1.047v2.085h-6.384V2.047c0-.578-.48-1.047-1.067-1.047-.588 0-1.066.469-1.066 1.047v2.085h-6.39V2.047C9.583 1.469 9.104 1 8.516 1c-.587 0-1.059.469-1.059 1.047v2.085H2.84C1.274 4.132 0 5.382 0 6.918v24.728c0 1.542 1.274 2.792 2.84 2.792h28.4c1.564 0 2.838-1.25 2.838-2.792V6.918c0-1.536-1.274-2.786-2.839-2.786zm.706 27.514a.702.702 0 0 1-.707.699H2.84a.702.702 0 0 1-.707-.7V6.919c0-.382.317-.694.707-.694h4.618v2.093c0 .576.472 1.039 1.06 1.039.587 0 1.066-.463 1.066-1.04V6.225h6.39v2.093c0 .576.478 1.039 1.066 1.039.587 0 1.067-.463 1.067-1.04V6.225h6.384v2.093c0 .576.478 1.039 1.066 1.039.587 0 1.066-.463 1.066-1.04V6.225h4.617c.39 0 .707.312.707.694v24.728z"/><path d="M7.457 16.672h4.258V13.54H7.457zM7.457 21.896h4.258v-3.132H7.457zM7.457 27.12h4.258v-3.13H7.457zM14.907 27.12h4.259v-3.13h-4.259zM14.907 21.896h4.259v-3.132h-4.259zM14.907 16.672h4.259V13.54h-4.259zM22.363 27.12h4.258v-3.13h-4.258zM22.363 21.896h4.258v-3.132h-4.258zM22.363 16.672h4.258V13.54h-4.258z"/></g></svg><svg width="35" height="24" viewBox="-5 -5 35 24" id="chevron-down" x="205" y="248" xmlns="http://www.w3.org/2000/svg"><title>chevron-down</title><path d="M13.02 13.024L24.784 1.262a.736.736 0 0 0 0-1.045.736.736 0 0 0-1.045 0L12.501 11.455 1.263.217a.736.736 0 0 0-1.044 0A.743.743 0 0 0 0 .737a.72.72 0 0 0 .219.52L11.98 13.019c.284.29.754.29 1.04.005" fill="#000" fill-rule="evenodd"/></svg><svg width="30" height="21" viewBox="-5 -5 30 21" id="chevron-down-small" x="335" y="259" xmlns="http://www.w3.org/2000/svg"><title>chevron-down-small</title><path d="M10.417 10.42l9.409-9.41a.589.589 0 0 0 0-.836.589.589 0 0 0-.836 0L10 9.164 1.01.174A.595.595 0 1 0 0 .59c0 .148.057.302.175.415l9.41 9.41a.588.588 0 0 0 .832.004" fill="#ffdb86" fill-rule="nonzero"/></svg><svg width="35" height="24" viewBox="-5 -5 35 24" id="chevron-down-turquoise" x="240" y="248" xmlns="http://www.w3.org/2000/svg"><title>chevron-down-turquoise</title><path d="M13.02 13.024L24.784 1.262a.736.736 0 0 0 0-1.045.736.736 0 0 0-1.045 0L12.501 11.455 1.263.217a.736.736 0 0 0-1.044 0A.743.743 0 0 0 0 .737a.72.72 0 0 0 .219.52L11.98 13.019c.284.29.754.29 1.04.005" fill="#FFB606" fill-rule="evenodd"/></svg><svg width="35" height="24" viewBox="-5 -5 35 24" id="chevron-down-white" x="275" y="248" xmlns="http://www.w3.org/2000/svg"><title>chevron-down-white</title><path d="M13.02 13.024L24.784 1.262a.736.736 0 0 0 0-1.045.736.736 0 0 0-1.045 0L12.501 11.455 1.263.217a.736.736 0 0 0-1.044 0A.743.743 0 0 0 0 .737a.72.72 0 0 0 .219.52L11.98 13.019c.284.29.754.29 1.04.005" fill="#fff" fill-rule="evenodd"/></svg><svg width="24" height="35" viewBox="-5 -5 24 35" id="chevron-left" x="201" y="291" xmlns="http://www.w3.org/2000/svg"><title>chevron-left</title><path d="M.213 11.98L11.976.217a.736.736 0 0 1 1.044 0c.29.29.29.755 0 1.045L1.783 12.5 13.02 23.736A.743.743 0 1 1 12.5 25a.72.72 0 0 1-.519-.219L.218 13.02a.734.734 0 0 1-.005-1.04" fill="#000" fill-rule="evenodd"/></svg><svg width="31" height="48" viewBox="-5 -5 31 48" id="chevron-left-large" x="120" y="190" xmlns="http://www.w3.org/2000/svg"><title>chevron-left-large</title><path d="M.323 18.21L18.203.33c.44-.44 1.147-.44 1.587 0 .441.441.441 1.148 0 1.588L2.71 18.998 19.79 36.08c.441.441.441 1.148 0 1.588A1.129 1.129 0 0 1 19 38c-.282 0-.572-.108-.789-.333L.331 19.79a1.116 1.116 0 0 1-.008-1.58" fill="#000" fill-rule="evenodd"/></svg><svg width="31" height="48" viewBox="-5 -5 31 48" id="chevron-left-large-turquoise" x="151" y="190" xmlns="http://www.w3.org/2000/svg"><title>chevron-left-large-turquoise</title><path d="M.323 18.21L18.203.33c.44-.44 1.147-.44 1.587 0 .441.441.441 1.148 0 1.588L2.71 18.998 19.79 36.08c.441.441.441 1.148 0 1.588A1.129 1.129 0 0 1 19 38c-.282 0-.572-.108-.789-.333L.331 19.79a1.116 1.116 0 0 1-.008-1.58" fill="#FFB606" fill-rule="evenodd"/></svg><svg width="21" height="30" viewBox="-5 -5 21 30" id="chevron-left-small" x="335" y="169" xmlns="http://www.w3.org/2000/svg"><title>chevron-left-small</title><path d="M.17 9.584L9.58.174a.589.589 0 0 1 .836 0 .589.589 0 0 1 0 .836L1.426 10l8.99 8.99A.594.594 0 1 1 10 20a.576.576 0 0 1-.415-.175l-9.41-9.41a.588.588 0 0 1-.005-.831" fill="#FFB606" fill-rule="evenodd"/></svg><svg width="21" height="30" viewBox="-5 -5 21 30" id="chevron-left-small-white" x="335" y="139" xmlns="http://www.w3.org/2000/svg"><title>chevron-left-small-white</title><path d="M.17 9.584L9.58.174a.589.589 0 0 1 .836 0 .589.589 0 0 1 0 .836L1.426 10l8.99 8.99A.594.594 0 1 1 10 20a.576.576 0 0 1-.415-.175l-9.41-9.41a.588.588 0 0 1-.005-.831" fill="#fff" fill-rule="evenodd"/></svg><svg width="24" height="35" viewBox="-5 -5 24 35" id="chevron-left-turquoise" x="219" y="190" xmlns="http://www.w3.org/2000/svg"><title>chevron-left-turquoise</title><path d="M.213 11.98L11.976.217a.736.736 0 0 1 1.044 0c.29.29.29.755 0 1.045L1.783 12.5 13.02 23.736A.743.743 0 1 1 12.5 25a.72.72 0 0 1-.519-.219L.218 13.02a.734.734 0 0 1-.005-1.04" fill="#FFB606" fill-rule="evenodd"/></svg><svg width="24" height="35" viewBox="-5 -5 24 35" id="chevron-left-white" x="249" y="291" xmlns="http://www.w3.org/2000/svg"><title>chevron-left-white</title><path d="M.213 11.98L11.976.217a.736.736 0 0 1 1.044 0c.29.29.29.755 0 1.045L1.783 12.5 13.02 23.736A.743.743 0 1 1 12.5 25a.72.72 0 0 1-.519-.219L.218 13.02a.734.734 0 0 1-.005-1.04" fill="#fff" fill-rule="evenodd"/></svg><svg width="24" height="35" viewBox="-5 -5 24 35" id="chevron-right" x="225" y="291" xmlns="http://www.w3.org/2000/svg"><title>chevron-right</title><path d="M13.025 11.98L1.262.217a.736.736 0 0 0-1.045 0 .736.736 0 0 0 0 1.045L11.455 12.5.217 23.736A.743.743 0 1 0 .737 25a.72.72 0 0 0 .52-.219L13.018 13.02a.734.734 0 0 0 .006-1.04" fill="#000" fill-rule="evenodd"/></svg><svg width="31" height="48" viewBox="-5 -5 31 48" id="chevron-right-large" x="58" y="190" xmlns="http://www.w3.org/2000/svg"><title>chevron-right-large</title><path d="M19.798 18.21L1.918.33a1.119 1.119 0 0 0-1.587 0C-.11.771-.11 1.478.33 1.918l17.08 17.08L.332 36.08c-.441.441-.441 1.148 0 1.588.216.217.506.333.79.333.282 0 .572-.108.789-.333L19.79 19.79c.44-.433.44-1.147.008-1.58" fill="#000" fill-rule="evenodd"/></svg><svg width="31" height="48" viewBox="-5 -5 31 48" id="chevron-right-large-turquoise" x="89" y="190" xmlns="http://www.w3.org/2000/svg"><title>chevron-right-large-turquoise</title><path d="M19.798 18.21L1.918.33a1.119 1.119 0 0 0-1.587 0C-.11.771-.11 1.478.33 1.918l17.08 17.08L.332 36.08c-.441.441-.441 1.148 0 1.588.216.217.506.333.79.333.282 0 .572-.108.789-.333L19.79 19.79c.44-.433.44-1.147.008-1.58" fill="#FFB606" fill-rule="evenodd"/></svg><svg width="21" height="30" viewBox="-5 -5 21 30" id="chevron-right-small" x="335" y="199" xmlns="http://www.w3.org/2000/svg"><title>chevron-right-small</title><path d="M10.42 9.584L1.01.174a.589.589 0 0 0-.836 0 .589.589 0 0 0 0 .836L9.164 10l-8.99 8.99A.594.594 0 1 0 .59 20a.576.576 0 0 0 .415-.175l9.41-9.41a.588.588 0 0 0 .005-.831" fill="#000" fill-rule="evenodd"/></svg><svg width="21" height="30" viewBox="-5 -5 21 30" id="chevron-right-small-turquoise" x="335" y="229" xmlns="http://www.w3.org/2000/svg"><title>chevron-right-small-turquoise</title><path d="M10.42 9.584L1.01.174a.589.589 0 0 0-.836 0 .589.589 0 0 0 0 .836L9.164 10l-8.99 8.99A.594.594 0 1 0 .59 20a.576.576 0 0 0 .415-.175l9.41-9.41a.588.588 0 0 0 .005-.831" fill="#FFB606" fill-rule="evenodd"/></svg><svg width="24" height="35" viewBox="-5 -5 24 35" id="chevron-right-turquoise" x="177" y="291" xmlns="http://www.w3.org/2000/svg"><title>chevron-right-turquoise</title><path d="M13.025 11.98L1.262.217a.736.736 0 0 0-1.045 0 .736.736 0 0 0 0 1.045L11.455 12.5.217 23.736A.743.743 0 1 0 .737 25a.72.72 0 0 0 .52-.219L13.018 13.02a.734.734 0 0 0 .006-1.04" fill="#FFB606" fill-rule="evenodd"/></svg><svg width="24" height="35" viewBox="-5 -5 24 35" id="chevron-right-white" x="153" y="291" xmlns="http://www.w3.org/2000/svg"><title>chevron-right-white</title><path d="M13.025 11.98L1.262.217a.736.736 0 0 0-1.045 0 .736.736 0 0 0 0 1.045L11.455 12.5.217 23.736A.743.743 0 1 0 .737 25a.72.72 0 0 0 .52-.219L13.018 13.02a.734.734 0 0 0 .006-1.04" fill="#fff" fill-rule="evenodd"/></svg><svg width="18" height="25" viewBox="-5 -5 18 25" id="chevron-right-xsmall" x="335" y="280" xmlns="http://www.w3.org/2000/svg"><title>chevron-right-xsmall</title><path d="M7.815 7.188L.757.13a.442.442 0 0 0-.627 0 .442.442 0 0 0 0 .627L6.873 7.5.13 14.242A.446.446 0 1 0 .442 15a.432.432 0 0 0 .312-.131L7.812 7.81a.44.44 0 0 0 .003-.623" fill="#FFB606" fill-rule="evenodd"/></svg><svg width="18" height="25" viewBox="-5 -5 18 25" id="chevron-right-xsmall-white" x="335" y="305" xmlns="http://www.w3.org/2000/svg"><title>chevron-right-xsmall-white</title><path d="M7.815 7.188L.757.13a.442.442 0 0 0-.627 0 .442.442 0 0 0 0 .627L6.873 7.5.13 14.242A.446.446 0 1 0 .442 15a.432.432 0 0 0 .312-.131L7.812 7.81a.44.44 0 0 0 .003-.623" fill="#fff" fill-rule="evenodd"/></svg><svg width="35" height="35" viewBox="-5 -5 35 35" id="close" x="335" y="35" xmlns="http://www.w3.org/2000/svg"><title>close</title><g fill="#000" fill-rule="evenodd"><path d="M1.256 24.686L12.692 13.25l1.876-1.876L24.686 1.256c.28-.28.27-.738-.023-1.03-.292-.292-.75-.303-1.03-.023L13.515 10.321l-1.876 1.876L.204 23.633c-.28.28-.27.739.022 1.03.292.293.75.303 1.03.023"/><path d="M24.686 23.633L13.25 12.197l-1.876-1.876L1.256.203C.976-.077.518-.066.226.226c-.292.292-.303.75-.023 1.03l10.118 10.118 1.876 1.876 11.436 11.436c.28.28.739.27 1.03-.023.292-.291.302-.75.023-1.03"/></g></svg><svg width="35" height="35" viewBox="-5 -5 35 35" id="close-turquoise" x="335" xmlns="http://www.w3.org/2000/svg"><title>close-turquoise</title><g fill="#FFB606" fill-rule="evenodd"><path d="M1.256 24.686L12.692 13.25l1.876-1.876L24.686 1.256c.28-.28.27-.738-.023-1.03-.292-.292-.75-.303-1.03-.023L13.515 10.321l-1.876 1.876L.204 23.633c-.28.28-.27.739.022 1.03.292.293.75.303 1.03.023"/><path d="M24.686 23.633L13.25 12.197l-1.876-1.876L1.256.203C.976-.077.518-.066.226.226c-.292.292-.303.75-.023 1.03l10.118 10.118 1.876 1.876 11.436 11.436c.28.28.739.27 1.03-.023.292-.291.302-.75.023-1.03"/></g></svg><svg width="39" height="31" viewBox="-5 -5 39 31" id="envelope" x="166" y="248" xmlns="http://www.w3.org/2000/svg"><title>envelope</title><path d="M26.348.057H2.714C1.265.057.086 1.223.086 2.656v15.303c0 1.433 1.18 2.6 2.628 2.6h23.634c1.45 0 2.628-1.167 2.628-2.6V2.656c0-1.433-1.179-2.6-2.628-2.6zM1.709 2.837l10.922 9.402c.507.438 1.182.68 1.902.68.717 0 1.393-.243 1.902-.684l10.918-9.401v15.125c0 .546-.451.99-1.005.99H2.714a.999.999 0 0 1-1.005-.99V2.837zm13.66 8.187c-.447.383-1.23.383-1.676 0L2.826 1.666h23.408L15.37 11.024z" fill-rule="nonzero" fill="#FFB606"/></svg><svg width="39" height="31" viewBox="-5 -5 39 31" id="envelope-light" x="127" y="248" xmlns="http://www.w3.org/2000/svg"><title>envelope-light</title><path d="M26.348.057H2.714C1.265.057.086 1.223.086 2.656v15.303c0 1.433 1.18 2.6 2.628 2.6h23.634c1.45 0 2.628-1.167 2.628-2.6V2.656c0-1.433-1.179-2.6-2.628-2.6zM1.709 2.837l10.922 9.402c.507.438 1.182.68 1.902.68.717 0 1.393-.243 1.902-.684l10.918-9.401v15.125c0 .546-.451.99-1.005.99H2.714a.999.999 0 0 1-1.005-.99V2.837zm13.66 8.187c-.447.383-1.23.383-1.676 0L2.826 1.666h23.408L15.37 11.024z" fill-rule="nonzero" fill="#ffdb86"/></svg><svg width="39" height="31" viewBox="-5 -5 39 31" id="envelope-turquoise" x="289" y="217" xmlns="http://www.w3.org/2000/svg"><title>envelope</title><path d="M15.341 11.009c-.448.384-1.234.384-1.682 0L2.75 1.615h23.497l-10.907 9.394zM1.631 2.79l10.962 9.437c.509.44 1.187.683 1.91.683.72 0 1.398-.244 1.908-.687l10.96-9.436V17.97c0 .548-.453.994-1.01.994H2.64a1.003 1.003 0 0 1-1.009-.994V2.791zM26.36 0H2.64C1.184 0 0 1.17 0 2.61v15.36c0 1.439 1.184 2.61 2.639 2.61H26.36c1.456 0 2.639-1.171 2.639-2.61V2.61C29 1.17 27.817 0 26.361 0z" fill="#FFB606" fill-rule="evenodd"/></svg><svg width="34" height="34" viewBox="-5 -5 34 34" id="facebook" x="335" y="105" xmlns="http://www.w3.org/2000/svg"><title>facebook</title><path d="M16.385 2.144v3.173h-1.887c-.69 0-1.154.145-1.395.433-.24.288-.36.721-.36 1.298V9.32h3.521l-.468 3.557h-3.053V22H9.065v-9.123H6V9.32h3.065V6.7c0-1.49.417-2.647 1.25-3.468C11.148 2.411 12.258 2 13.645 2c1.177 0 2.09.048 2.74.144z" fill="#333" fill-rule="evenodd"/></svg><svg width="63" height="63" viewBox="-5 -5 63 63" id="facebook-circle" y="127" xmlns="http://www.w3.org/2000/svg"><title>facebook-circle</title><g fill="#000" fill-rule="evenodd"><path d="M33.528 21.882h-5.161V18.13c0-1.151 1.194-1.418 1.752-1.418h3.335v-5.062l-3.822-.02c-5.214 0-6.405 3.775-6.405 6.195v4.056h-3.784v5.215h3.784v14.08h5.14v-14.08h4.364l.797-5.215z"/><path d="M26.486 3.183C13.622 3.183 3.159 13.6 3.159 26.404c0 12.805 10.463 23.222 23.327 23.222 12.86 0 23.324-10.417 23.324-23.222 0-12.804-10.463-23.22-23.324-23.22m0 49.579C11.886 52.763.01 40.938.01 26.404.01 11.87 11.887.046 26.486.046c14.599 0 26.476 11.824 26.476 26.358S41.085 52.763 26.486 52.763"/></g></svg><svg width="63" height="63" viewBox="-5 -5 63 63" id="facebook-circle-turquoise" x="63" y="127" xmlns="http://www.w3.org/2000/svg"><title>facebook-circle-turquoise</title><g fill="#ffdb86" fill-rule="evenodd"><path d="M33.528 21.882h-5.161V18.13c0-1.151 1.194-1.418 1.752-1.418h3.335v-5.062l-3.822-.02c-5.214 0-6.405 3.775-6.405 6.195v4.056h-3.784v5.215h3.784v14.08h5.14v-14.08h4.364l.797-5.215z"/><path d="M26.486 3.183C13.622 3.183 3.159 13.6 3.159 26.404c0 12.805 10.463 23.222 23.327 23.222 12.86 0 23.324-10.417 23.324-23.222 0-12.804-10.463-23.22-23.324-23.22m0 49.579C11.886 52.763.01 40.938.01 26.404.01 11.87 11.887.046 26.486.046c14.599 0 26.476 11.824 26.476 26.358S41.085 52.763 26.486 52.763"/></g></svg><svg width="63" height="63" viewBox="-5 -5 63 63" id="facebook-circle-turquoise-dark" x="189" y="63" xmlns="http://www.w3.org/2000/svg"><title>facebook-circle-turquoise-dark</title><g fill="#FFB606" fill-rule="evenodd"><path d="M33.528 21.882h-5.161V18.13c0-1.151 1.194-1.418 1.752-1.418h3.335v-5.062l-3.822-.02c-5.214 0-6.405 3.775-6.405 6.195v4.056h-3.784v5.215h3.784v14.08h5.14v-14.08h4.364l.797-5.215z"/><path d="M26.486 3.183C13.622 3.183 3.159 13.6 3.159 26.404c0 12.805 10.463 23.222 23.327 23.222 12.86 0 23.324-10.417 23.324-23.222 0-12.804-10.463-23.22-23.324-23.22m0 49.579C11.886 52.763.01 40.938.01 26.404.01 11.87 11.887.046 26.486.046c14.599 0 26.476 11.824 26.476 26.358S41.085 52.763 26.486 52.763"/></g></svg><svg width="63" height="63" viewBox="-5 -5 63 63" id="instagram-circle" x="189" xmlns="http://www.w3.org/2000/svg"><title>instagram-circle</title><g fill-rule="nonzero" fill="#FFB606"><path d="M26.534 52.903C12 52.903.175 41.079.175 26.545S12 .186 26.534.186c14.534 0 26.358 11.825 26.358 26.358 0 14.534-11.824 26.359-26.358 26.359zm0-49.58c-12.805 0-23.222 10.417-23.222 23.221 0 12.805 10.417 23.222 23.222 23.222 12.804 0 23.22-10.417 23.22-23.222 0-12.804-10.416-23.22-23.22-23.22z"/><g transform="translate(14.022 14.022)"><path d="M12.512 8.363a4.164 4.164 0 0 0-4.16 4.159 4.164 4.164 0 0 0 4.16 4.159 4.163 4.163 0 0 0 4.158-4.159 4.163 4.163 0 0 0-4.158-4.159z"/><path d="M18.026.214H6.996A6.8 6.8 0 0 0 .203 7.007v11.03a6.8 6.8 0 0 0 6.793 6.793h11.03a6.8 6.8 0 0 0 6.793-6.793V7.007A6.8 6.8 0 0 0 18.026.214zm-5.514 18.65a6.35 6.35 0 0 1-6.343-6.342 6.35 6.35 0 0 1 6.343-6.342 6.35 6.35 0 0 1 6.342 6.342 6.35 6.35 0 0 1-6.342 6.343zm9.076-11.802a1.62 1.62 0 0 1-1.133.47c-.42 0-.834-.173-1.13-.47a1.615 1.615 0 0 1-.471-1.133 1.607 1.607 0 0 1 1.602-1.602c.422 0 .835.17 1.132.47.299.296.47.71.47 1.132 0 .421-.171.834-.47 1.133z"/></g></g></svg><svg width="63" height="63" viewBox="-5 -5 63 63" id="instagram-circle-light" x="126" y="127" xmlns="http://www.w3.org/2000/svg"><title>instagram-circle-light</title><g fill-rule="nonzero" fill="#ffdb86"><path d="M26.534 52.903C12 52.903.175 41.079.175 26.545S12 .186 26.534.186c14.534 0 26.358 11.825 26.358 26.358 0 14.534-11.824 26.359-26.358 26.359zm0-49.58c-12.805 0-23.222 10.417-23.222 23.221 0 12.805 10.417 23.222 23.222 23.222 12.804 0 23.22-10.417 23.22-23.222 0-12.804-10.416-23.22-23.22-23.22z"/><g transform="translate(14.022 14.022)"><path d="M12.512 8.363a4.164 4.164 0 0 0-4.16 4.159 4.164 4.164 0 0 0 4.16 4.159 4.163 4.163 0 0 0 4.158-4.159 4.163 4.163 0 0 0-4.158-4.159z"/><path d="M18.026.214H6.996A6.8 6.8 0 0 0 .203 7.007v11.03a6.8 6.8 0 0 0 6.793 6.793h11.03a6.8 6.8 0 0 0 6.793-6.793V7.007A6.8 6.8 0 0 0 18.026.214zm-5.514 18.65a6.35 6.35 0 0 1-6.343-6.342 6.35 6.35 0 0 1 6.343-6.342 6.35 6.35 0 0 1 6.342 6.342 6.35 6.35 0 0 1-6.342 6.343zm9.076-11.802a1.62 1.62 0 0 1-1.133.47c-.42 0-.834-.173-1.13-.47a1.615 1.615 0 0 1-.471-1.133 1.607 1.607 0 0 1 1.602-1.602c.422 0 .835.17 1.132.47.299.296.47.71.47 1.132 0 .421-.171.834-.47 1.133z"/></g></g></svg><svg width="39" height="39" viewBox="-5 -5 39 39" id="linkedin" x="40" y="291" xmlns="http://www.w3.org/2000/svg"><title>linkedin</title><path d="M6.384 8.164H.933a.68.68 0 0 0-.676.682v19.25a.68.68 0 0 0 .676.682h5.452a.68.68 0 0 0 .675-.682V8.846a.68.68 0 0 0-.676-.682zm-.676 19.25h-4.1V9.53h4.1v17.885zM21.584 7.93c-2.647 0-4.38 1.154-5.385 2.157l-.124-1.306a.678.678 0 0 0-.672-.617h-.014l-4.97.096a.67.67 0 0 0-.48.216.686.686 0 0 0-.181.497c.062 1.406.06 3.048.057 4.95v14.27c0 .377.302.682.675.682h5.452a.679.679 0 0 0 .675-.682V17.065c0-.568.049-.979.146-1.224.34-.874 1.46-1.777 2.748-1.777 1.667 0 2.662 1.281 2.662 3.428v10.701a.68.68 0 0 0 .676.682h5.356a.679.679 0 0 0 .676-.682v-11.4c0-5.55-2.729-8.863-7.297-8.863zM27.53 27.51h-4.006V17.492c0-2.912-1.575-4.793-4.013-4.793-1.935 0-3.508 1.362-4.004 2.64-.164.414-.24.963-.24 1.726v10.446h-4.102V13.926c.003-1.616.005-3.046-.032-4.315l3.657-.07.21 2.2c.034.35.325.616.673.616h.115c.233 0 .45-.12.573-.32.398-.644 1.952-2.742 5.223-2.742 3.78 0 5.946 2.733 5.946 7.499V27.51zM3.887.136C1.694.136.103 1.662.103 3.766c0 2.102 1.56 3.628 3.708 3.628 2.215 0 3.822-1.526 3.822-3.645C7.584 1.622 6.043.136 3.887.136zM3.81 6.03c-1.388 0-2.357-.93-2.357-2.263 0-1.355.978-2.265 2.433-2.265 1.423 0 2.364.895 2.395 2.265 0 1.354-.993 2.263-2.471 2.263z" fill-rule="nonzero" fill="#FFB606"/></svg><svg width="37" height="47" viewBox="-5 -5 37 47" id="mail-box" x="182" y="190" xmlns="http://www.w3.org/2000/svg"><title>mail-box</title><g fill-rule="nonzero" fill="#FFB606"><path d="M21.304 19.768h-8.857a.585.585 0 1 0 0 1.17h8.857a.585.585 0 1 0 0-1.17"/><path d="M22.634 9.983a3.546 3.546 0 0 1-.67-1.123l-2.417-7.405c-.114-.35-.51-.637-.879-.637H1.632c-.368 0-.582.288-.474.641l2.44 7.973c.108.353.196.944.197 1.312l.016 19.769c0 .368.197.9.438 1.179l2.969 3.45c.24.278.74.507 1.108.507h17.17a.674.674 0 0 0 .672-.67l.032-20.577c0-.369-.207-.89-.462-1.156l-3.104-3.263zM2.07 2.167c-.108-.353.104-.641.473-.641h15.72c.37 0 .764.287.877.638l2.117 6.563c.114.352-.096.639-.464.639H4.97c-.37 0-.76-.289-.87-.641l-2.03-6.558zm5.585 31.539c0 .369-.202.447-.45.173l-2.236-2.471c-.247-.274-.45-.8-.45-1.169V11.39c0-.369.204-.448.452-.175l2.232 2.45c.249.272.452.797.452 1.166v18.876zM5.418 10.653c-.248-.272-.15-.495.22-.495h15.504c.368 0 .873.224 1.12.497l2.303 2.546c.248.273.148.497-.22.497H8.864c-.37 0-.875-.223-1.123-.496l-2.324-2.549zM25.46 34.271c0 .368-.302.67-.67.67H9.033a.673.673 0 0 1-.67-.67V15.077c0-.369.301-.67.67-.67h15.754c.37 0 .671.301.671.67v19.194z"/><path d="M26.494 12.945l-3.195-3.36a3.498 3.498 0 0 1-.671-1.123L20.094.701c-.114-.35-.51-.637-.879-.637H.612C.243.064.03.352.138.704l2.706 8.842c.108.352.196.944.196 1.311l.016 19.936c.001.37.197.9.439 1.18l3.376 3.923c.241.279.74.509 1.108.509H26.25c.37 0 .671-.302.671-.671l.034-21.632c0-.369-.207-.89-.461-1.157zM4.657 7.969L3.094 2.921c-.109-.352.104-.64.473-.64h14.147c.37 0 .763.287.877.639l1.63 5.053c.113.35-.097.639-.466.639H5.527c-.368 0-.76-.289-.87-.643zm2.244 23.779c0 .367-.203.446-.451.172l-.726-.803c-.247-.273-.45-.8-.45-1.169v-16.61c0-.37.203-.448.451-.175l.725.793c.248.272.45.798.45 1.167v16.625zm.226-20.34c-.248-.273-.15-.496.218-.496h13.462c.369 0 .873.225 1.12.498l.937 1.037c.249.273.148.496-.22.496H9.196c-.37 0-.874-.223-1.122-.494l-.948-1.04zm17.577 22.107c0 .371-.302.671-.67.671H9.789c-.369 0-.67-.3-.67-.67V15.832c0-.37.301-.671.67-.671h14.245c.368 0 .67.3.67.67v17.683z"/><path d="M21.304 22.79h-8.857a.585.585 0 1 0 0 1.17h8.857a.585.585 0 1 0 0-1.17"/></g></svg><svg width="37" height="47" viewBox="-5 -5 37 47" id="mail-box-light" x="252" xmlns="http://www.w3.org/2000/svg"><title>mail-box-light</title><g fill-rule="nonzero" fill="#ffdb86"><path d="M21.304 19.768h-8.857a.585.585 0 1 0 0 1.17h8.857a.585.585 0 1 0 0-1.17"/><path d="M22.634 9.983a3.546 3.546 0 0 1-.67-1.123l-2.417-7.405c-.114-.35-.51-.637-.879-.637H1.632c-.368 0-.582.288-.474.641l2.44 7.973c.108.353.196.944.197 1.312l.016 19.769c0 .368.197.9.438 1.179l2.969 3.45c.24.278.74.507 1.108.507h17.17a.674.674 0 0 0 .672-.67l.032-20.577c0-.369-.207-.89-.462-1.156l-3.104-3.263zM2.07 2.167c-.108-.353.104-.641.473-.641h15.72c.37 0 .764.287.877.638l2.117 6.563c.114.352-.096.639-.464.639H4.97c-.37 0-.76-.289-.87-.641l-2.03-6.558zm5.585 31.539c0 .369-.202.447-.45.173l-2.236-2.471c-.247-.274-.45-.8-.45-1.169V11.39c0-.369.204-.448.452-.175l2.232 2.45c.249.272.452.797.452 1.166v18.876zM5.418 10.653c-.248-.272-.15-.495.22-.495h15.504c.368 0 .873.224 1.12.497l2.303 2.546c.248.273.148.497-.22.497H8.864c-.37 0-.875-.223-1.123-.496l-2.324-2.549zM25.46 34.271c0 .368-.302.67-.67.67H9.033a.673.673 0 0 1-.67-.67V15.077c0-.369.301-.67.67-.67h15.754c.37 0 .671.301.671.67v19.194z"/><path d="M26.494 12.945l-3.195-3.36a3.498 3.498 0 0 1-.671-1.123L20.094.701c-.114-.35-.51-.637-.879-.637H.612C.243.064.03.352.138.704l2.706 8.842c.108.352.196.944.196 1.311l.016 19.936c.001.37.197.9.439 1.18l3.376 3.923c.241.279.74.509 1.108.509H26.25c.37 0 .671-.302.671-.671l.034-21.632c0-.369-.207-.89-.461-1.157zM4.657 7.969L3.094 2.921c-.109-.352.104-.64.473-.64h14.147c.37 0 .763.287.877.639l1.63 5.053c.113.35-.097.639-.466.639H5.527c-.368 0-.76-.289-.87-.643zm2.244 23.779c0 .367-.203.446-.451.172l-.726-.803c-.247-.273-.45-.8-.45-1.169v-16.61c0-.37.203-.448.451-.175l.725.793c.248.272.45.798.45 1.167v16.625zm.226-20.34c-.248-.273-.15-.496.218-.496h13.462c.369 0 .873.225 1.12.498l.937 1.037c.249.273.148.496-.22.496H9.196c-.37 0-.874-.223-1.122-.494l-.948-1.04zm17.577 22.107c0 .371-.302.671-.67.671H9.789c-.369 0-.67-.3-.67-.67V15.832c0-.37.301-.671.67-.671h14.245c.368 0 .67.3.67.67v17.683z"/><path d="M21.304 22.79h-8.857a.585.585 0 1 0 0 1.17h8.857a.585.585 0 1 0 0-1.17"/></g></svg><svg width="33" height="42" viewBox="-5 -5 33 42" id="map-marker" x="252" y="91" xmlns="http://www.w3.org/2000/svg"><title>map-marker</title><g fill-rule="nonzero" fill="#FFB606"><path d="M19.526 3.366A11.385 11.385 0 0 0 11.31.065a11.39 11.39 0 0 0-7.97 3.4 11.398 11.398 0 0 0-3.336 7.998 11.506 11.506 0 0 0 1.283 5.342l5.13 8.597 2.711 4.545a2.708 2.708 0 0 0 2.344 1.331c.97 0 1.847-.498 2.344-1.33l2.712-4.546 5.129-8.596a11.342 11.342 0 0 0 1.284-5.274c0-3.094-1.213-5.993-3.415-8.166M20.08 15.9l-7.826 13.116a.896.896 0 0 1-.781.444.895.895 0 0 1-.781-.444L2.865 15.9a9.547 9.547 0 0 1-1.042-4.425c.031-5.216 4.298-9.518 9.512-9.59a9.585 9.585 0 0 1 6.913 2.778 9.58 9.58 0 0 1 2.874 6.87c0 1.538-.35 3.007-1.042 4.367"/><path d="M11.473 7.38a4.156 4.156 0 0 0-4.152 4.152 4.157 4.157 0 0 0 4.152 4.152 4.157 4.157 0 0 0 4.152-4.152 4.156 4.156 0 0 0-4.152-4.152m0 6.485a2.335 2.335 0 0 1-2.333-2.333A2.335 2.335 0 0 1 11.473 9.2a2.335 2.335 0 0 1 2.332 2.332 2.335 2.335 0 0 1-2.332 2.333"/></g></svg><svg width="30" height="42" viewBox="-5 -5 30 42" id="mobile-phone" x="252" y="133" xmlns="http://www.w3.org/2000/svg"><title>mobile-phone</title><g fill-rule="nonzero" fill="#FFB606"><path d="M16.452.006H2.805A2.719 2.719 0 0 0 .09 2.722v26.52a2.719 2.719 0 0 0 2.715 2.715h13.647a2.719 2.719 0 0 0 2.716-2.716V2.721A2.719 2.719 0 0 0 16.452.007M2.805 1.915h13.647c.445 0 .807.362.807.807v20.023H1.998V2.722c0-.445.362-.807.807-.807m13.647 28.134H2.805a.809.809 0 0 1-.807-.808V24.72h15.261v4.522a.808.808 0 0 1-.807.808"/><path d="M9.629 25.804a1.621 1.621 0 1 0 0 3.243 1.621 1.621 0 0 0 0-3.243"/></g></svg><svg width="41" height="43" viewBox="-5 -5 41 43" id="paper" x="44" y="248" xmlns="http://www.w3.org/2000/svg"><title>paper</title><g transform="translate(0 -1)" fill="#FFB606" fill-rule="evenodd"><path d="M27.368 1H2.645C1.186 1 0 2.158 0 3.582V30.46c0 1.424 1.186 2.583 2.645 2.583h24.723c1.458 0 2.644-1.16 2.644-2.583V3.582C30.012 2.158 28.826 1 27.368 1zm.378 29.46c0 .2-.173.369-.377.369H2.645a.379.379 0 0 1-.378-.37V3.583c0-.2.173-.37.378-.37H27.37c.204 0 .377.17.377.37V30.46z"/><path d="M18.6 5.288H5.53c-.832 0-1.51.662-1.51 1.476v7.26c0 .815.678 1.477 1.51 1.477H18.6c.834 0 1.511-.662 1.511-1.476V6.764c0-.814-.677-1.476-1.51-1.476zm-.003 8.738H5.531V6.764H18.6l-.002 7.262zm.002.738v-.738h.002l-.002.738zM16.205 18.07H4.775a.746.746 0 0 0-.755.738c0 .408.338.737.755.737h11.43a.746.746 0 0 0 .756-.737.747.747 0 0 0-.756-.738M24.605 22.24H4.775a.747.747 0 0 0-.755.738c0 .408.339.738.756.738h19.829c.417 0 .756-.33.756-.738a.747.747 0 0 0-.756-.738M24.605 26.41H4.775a.747.747 0 0 0-.755.737c0 .408.339.738.756.738h19.829c.417 0 .756-.33.756-.738a.748.748 0 0 0-.756-.737M24.605 18.07h-5.13a.746.746 0 0 0-.755.738c0 .408.337.737.755.737h5.13a.746.746 0 0 0 .756-.737.748.748 0 0 0-.756-.738"/></g></svg><svg width="63" height="64" viewBox="-5 -5 63 64" id="paper-circle" xmlns="http://www.w3.org/2000/svg"><title>paper-circle</title><g fill-rule="nonzero" fill="#FFB606"><path d="M35.843 14.307h-18.64c-1.1 0-1.995.894-1.995 1.993v20.752c0 1.1.895 1.994 1.994 1.994h18.641c1.1 0 1.994-.895 1.994-1.994V16.3c0-1.099-.895-1.993-1.994-1.993zm.285 22.745c0 .154-.13.285-.285.285h-18.64a.289.289 0 0 1-.285-.285V16.3c0-.154.13-.285.285-.285h18.64c.155 0 .285.13.285.285v20.752z"/><path d="M29.232 17.617h-9.853a1.14 1.14 0 0 0-1.14 1.14v5.606a1.14 1.14 0 0 0 1.14 1.14h9.853a1.14 1.14 0 0 0 1.139-1.14v-5.606c0-.628-.511-1.14-1.14-1.14zm-.002 6.747H19.38v-5.607h9.853l-.002 5.607zm.002.57v-.57.57zM27.427 27.486h-8.618a.57.57 0 0 0 0 1.139h8.618a.57.57 0 1 0 0-1.14M33.76 30.705H18.81a.57.57 0 1 0 0 1.14h14.95a.57.57 0 1 0 0-1.14M33.76 33.925H18.81a.57.57 0 1 0 0 1.139h14.95a.57.57 0 1 0 0-1.139M33.76 27.486h-3.868a.57.57 0 1 0 0 1.139h3.867a.57.57 0 1 0 0-1.14"/><path d="M26.522 53.153C11.923 53.153.046 41.276.046 26.676S11.923.2 26.522.2C41.122.199 53 12.077 53 26.676c0 14.6-11.878 26.477-26.478 26.477m0-49.803C13.66 3.35 3.196 13.814 3.196 26.676S13.66 50.002 26.522 50.002s23.326-10.464 23.326-23.326S39.384 3.35 26.522 3.35"/></g></svg><svg width="63" height="64" viewBox="-5 -5 63 64" id="paper-circle-light" x="63" xmlns="http://www.w3.org/2000/svg"><title>paper-circle-light</title><g fill-rule="nonzero" fill="#ffdb86"><path d="M35.843 14.307h-18.64c-1.1 0-1.995.894-1.995 1.993v20.752c0 1.1.895 1.994 1.994 1.994h18.641c1.1 0 1.994-.895 1.994-1.994V16.3c0-1.099-.895-1.993-1.994-1.993zm.285 22.745c0 .154-.13.285-.285.285h-18.64a.289.289 0 0 1-.285-.285V16.3c0-.154.13-.285.285-.285h18.64c.155 0 .285.13.285.285v20.752z"/><path d="M29.232 17.617h-9.853a1.14 1.14 0 0 0-1.14 1.14v5.606a1.14 1.14 0 0 0 1.14 1.14h9.853a1.14 1.14 0 0 0 1.139-1.14v-5.606c0-.628-.511-1.14-1.14-1.14zm-.002 6.747H19.38v-5.607h9.853l-.002 5.607zm.002.57v-.57.57zM27.427 27.486h-8.618a.57.57 0 0 0 0 1.139h8.618a.57.57 0 1 0 0-1.14M33.76 30.705H18.81a.57.57 0 1 0 0 1.14h14.95a.57.57 0 1 0 0-1.14M33.76 33.925H18.81a.57.57 0 1 0 0 1.139h14.95a.57.57 0 1 0 0-1.139M33.76 27.486h-3.868a.57.57 0 1 0 0 1.139h3.867a.57.57 0 1 0 0-1.14"/><path d="M26.522 53.153C11.923 53.153.046 41.276.046 26.676S11.923.2 26.522.2C41.122.199 53 12.077 53 26.676c0 14.6-11.878 26.477-26.478 26.477m0-49.803C13.66 3.35 3.196 13.814 3.196 26.676S13.66 50.002 26.522 50.002s23.326-10.464 23.326-23.326S39.384 3.35 26.522 3.35"/></g></svg><svg width="40" height="41" viewBox="-5 -5 40 41" id="pencil" y="291" xmlns="http://www.w3.org/2000/svg"><title>pencil</title><path d="M1.06 30.64l.059-.01.012-.002.02-.006a.882.882 0 0 0 .056-.016l.008-.002 7.8-1.758v-.004l18.72-19.117.667-.681c2.085-2.128 2.155-5.52.157-7.56-1.998-2.039-5.32-1.968-7.403.159l-.668.682L1.763 21.446l.003.003L.045 29.41l-.002.008c-.006.018-.01.037-.015.056l-.006.021-.002.013-.01.059-.005.036c-.002.017-.002.036-.003.054L0 29.7a.59.59 0 0 0 .002.043c0 .018 0 .036.003.054 0 .011.003.023.005.035l.01.06c0 .005 0 .008.002.012 0 .008.004.015.006.022l.015.057.013.039.017.045a.613.613 0 0 0 .038.081l.026.047.02.031a1.678 1.678 0 0 0 .054.075c.01.013.02.026.032.038l.03.032.03.03a.409.409 0 0 0 .039.033l.029.024.043.031a.55.55 0 0 0 .077.047l.035.018.044.021.045.017.038.013.055.016.02.006.013.002.06.01.034.005.052.004a.632.632 0 0 0 .043.001l.042-.001a.945.945 0 0 0 .053-.004c.012 0 .023-.002.035-.004zm6.39-3.386l-5.292 1.193 1.168-5.405 4.124 4.212zM26.466 8.429l-.045-.046L9.01 26.161 7.36 24.476 24.775 6.691l1.697 1.732-.006.006zm.77-5.593c1.057 1.081 1.23 2.793.47 4.144l-4.528-4.624c1.322-.777 2.999-.6 4.058.48zm-5.472.779l1.696 1.733L6.045 23.133l-1.651-1.686 17.41-17.779-.046-.047.006-.006z" fill="#FFB606" fill-rule="evenodd"/></svg><svg width="63" height="63" viewBox="-5 -5 63 63" id="pencil-circle" x="189" y="127" xmlns="http://www.w3.org/2000/svg"><title>pencil-circle</title><g fill-rule="nonzero" fill="#FFB606"><path d="M14.151 39.67a.68.68 0 0 0 .063-.01l.019-.005a.946.946 0 0 0 .049-.014l.006-.001 6.91-1.525v-.003l16.58-16.581.591-.591c1.847-1.846 1.908-4.788.138-6.558-1.77-1.768-4.71-1.706-6.556.139l-.592.59-16.585 16.586.003.002-1.524 6.905-.002.007-.014.048-.005.019c0 .004 0 .007-.002.01a.552.552 0 0 0-.008.053l-.005.03-.003.047a.66.66 0 0 0 0 .075l.003.047.005.03a.642.642 0 0 0 .008.052l.002.011.005.019c.005.016.008.033.014.049a.479.479 0 0 0 .012.034l.014.04a.97.97 0 0 0 .018.038l.016.031a.422.422 0 0 0 .023.04l.018.028a.769.769 0 0 0 .047.065l.029.033.026.028.028.026a.65.65 0 0 0 .033.028l.027.021a.904.904 0 0 0 .065.045l.04.023.032.016c.013.006.025.012.039.017.013.005.026.011.04.015.01.005.022.008.033.012l.049.014.019.004.01.002a.643.643 0 0 0 .053.01l.03.003.046.004h.076l.046-.004c.011 0 .021-.002.031-.003zm5.66-2.936l-4.687 1.035 1.034-4.688 3.653 3.653zm16.843-16.327l-.04-.04-15.42 15.42-1.463-1.463L35.157 18.9l1.502 1.503-.005.005zm.682-4.852c.936.938 1.09 2.423.416 3.594l-4.01-4.01c1.171-.674 2.656-.52 3.594.416zm-4.847.676l1.503 1.503-15.426 15.425-1.461-1.462 15.42-15.42-.041-.04.005-.006z"/><path d="M26.504 52.746C11.97 52.746.146 40.922.146 26.388S11.97.029 26.504.029s26.359 11.825 26.359 26.359c0 14.534-11.825 26.358-26.359 26.358m0-49.58C13.7 3.166 3.283 13.583 3.283 26.388c0 12.804 10.417 23.22 23.221 23.22 12.805 0 23.222-10.416 23.222-23.22 0-12.805-10.417-23.222-23.222-23.222"/></g></svg><svg width="63" height="63" viewBox="-5 -5 63 63" id="pencil-circle-light" x="126" xmlns="http://www.w3.org/2000/svg"><title>pencil-circle-light</title><g fill-rule="nonzero" fill="#ffdb86"><path d="M14.151 39.67a.68.68 0 0 0 .063-.01l.019-.005a.946.946 0 0 0 .049-.014l.006-.001 6.91-1.525v-.003l16.58-16.581.591-.591c1.847-1.846 1.908-4.788.138-6.558-1.77-1.768-4.71-1.706-6.556.139l-.592.59-16.585 16.586.003.002-1.524 6.905-.002.007-.014.048-.005.019c0 .004 0 .007-.002.01a.552.552 0 0 0-.008.053l-.005.03-.003.047a.66.66 0 0 0 0 .075l.003.047.005.03a.642.642 0 0 0 .008.052l.002.011.005.019c.005.016.008.033.014.049a.479.479 0 0 0 .012.034l.014.04a.97.97 0 0 0 .018.038l.016.031a.422.422 0 0 0 .023.04l.018.028a.769.769 0 0 0 .047.065l.029.033.026.028.028.026a.65.65 0 0 0 .033.028l.027.021a.904.904 0 0 0 .065.045l.04.023.032.016c.013.006.025.012.039.017.013.005.026.011.04.015.01.005.022.008.033.012l.049.014.019.004.01.002a.643.643 0 0 0 .053.01l.03.003.046.004h.076l.046-.004c.011 0 .021-.002.031-.003zm5.66-2.936l-4.687 1.035 1.034-4.688 3.653 3.653zm16.843-16.327l-.04-.04-15.42 15.42-1.463-1.463L35.157 18.9l1.502 1.503-.005.005zm.682-4.852c.936.938 1.09 2.423.416 3.594l-4.01-4.01c1.171-.674 2.656-.52 3.594.416zm-4.847.676l1.503 1.503-15.426 15.425-1.461-1.462 15.42-15.42-.041-.04.005-.006z"/><path d="M26.504 52.746C11.97 52.746.146 40.922.146 26.388S11.97.029 26.504.029s26.359 11.825 26.359 26.359c0 14.534-11.825 26.358-26.359 26.358m0-49.58C13.7 3.166 3.283 13.583 3.283 26.388c0 12.804 10.417 23.22 23.221 23.22 12.805 0 23.222-10.416 23.222-23.22 0-12.805-10.417-23.222-23.222-23.222"/></g></svg><svg width="36" height="44" viewBox="-5 -5 36 44" id="phone" x="289" y="129" xmlns="http://www.w3.org/2000/svg"><title>phone</title><path d="M7.639.136c-.785-.172-1.612-.01-2.392.468l-.014.01-2.754 1.78A4.873 4.873 0 0 0 .407 5.107C-.168 6.984.003 8.895.182 10.169c.44 3.132 1.46 6.164 3.21 9.542 2.14 4.096 5.028 7.589 8.584 10.382 1.367 1.056 3.22 2.351 5.424 2.984.134.037.277.075.409.103 1.5.33 2.88.064 4.096-.784.01-.01.017-.018.028-.021l.01-.009c.412-.323.859-.598 1.332-.89l.102-.063c.422-.257.745-.462 1.046-.665.781-.523 1.286-1.218 1.46-2.011.175-.8 0-1.636-.508-2.42l-2.843-4.455c-.484-.789-1.158-1.298-1.95-1.471-.788-.173-1.623.004-2.413.51l-2.62 1.673-.06-.05c-.1-.087-.2-.17-.298-.25l-.153-.127c-.215-.174-.416-.337-.585-.501-1.7-1.686-3.136-3.713-4.39-6.198-.604-1.239-.968-2.239-1.181-3.244l-.016-.074.066-.038c.587-.34 1.149-.707 1.692-1.06l.173-.113.35-.226c.11-.073.221-.145.332-.216 1.645-1.055 2.028-2.8.973-4.446l-1.44-2.247c-.152-.238-.31-.485-.455-.728a32.084 32.084 0 0 0-.972-1.501C9.092.797 8.42.307 7.639.135m1.548 3.787l.241.385c.083.13.166.263.248.397L11.09 6.91c.578.902.42 1.622-.482 2.2l-.23.15c-.156.1-.31.2-.467.297a35.187 35.187 0 0 1-2.042 1.267l-.016.012c-.623.399-.667.897-.627 1.332l.006.063c.216 1.212.638 2.426 1.368 3.93 1.34 2.66 2.875 4.826 4.7 6.63.233.23.487.435.711.616.215.173.418.337.587.502l.035.031.027.026c.189.152.372.244.577.289.509.111.901-.14 1.03-.223l2.766-1.772c.293-.188.737-.39 1.19-.292.486.107.783.512.916.744l2.863 4.467c.562.868.397 1.636-.477 2.22-.265.185-.53.349-.81.522l-.18.113c-.508.308-1.047.647-1.563 1.04-.04.028-.08.054-.12.08-.823.528-1.681.669-2.691.448-.097-.022-.208-.046-.31-.075-1.963-.564-3.634-1.74-4.87-2.703-3.372-2.653-6.11-5.966-8.14-9.847-1.667-3.227-2.635-6.097-3.044-9.033-.257-1.795-.205-3.14.17-4.36a3.22 3.22 0 0 1 1.39-1.828L6.114 1.99c.422-.252.832-.342 1.19-.264.451.099.756.447.933.722l.015.025c.338.49.66 1.006.935 1.45" fill-rule="nonzero" fill="#FFB606"/></svg><svg width="36" height="44" viewBox="-5 -5 36 44" id="phone-light" x="289" y="173" xmlns="http://www.w3.org/2000/svg"><title>phone-light</title><path d="M7.639.136c-.785-.172-1.612-.01-2.392.468l-.014.01-2.754 1.78A4.873 4.873 0 0 0 .407 5.107C-.168 6.984.003 8.895.182 10.169c.44 3.132 1.46 6.164 3.21 9.542 2.14 4.096 5.028 7.589 8.584 10.382 1.367 1.056 3.22 2.351 5.424 2.984.134.037.277.075.409.103 1.5.33 2.88.064 4.096-.784.01-.01.017-.018.028-.021l.01-.009c.412-.323.859-.598 1.332-.89l.102-.063c.422-.257.745-.462 1.046-.665.781-.523 1.286-1.218 1.46-2.011.175-.8 0-1.636-.508-2.42l-2.843-4.455c-.484-.789-1.158-1.298-1.95-1.471-.788-.173-1.623.004-2.413.51l-2.62 1.673-.06-.05c-.1-.087-.2-.17-.298-.25l-.153-.127c-.215-.174-.416-.337-.585-.501-1.7-1.686-3.136-3.713-4.39-6.198-.604-1.239-.968-2.239-1.181-3.244l-.016-.074.066-.038c.587-.34 1.149-.707 1.692-1.06l.173-.113.35-.226c.11-.073.221-.145.332-.216 1.645-1.055 2.028-2.8.973-4.446l-1.44-2.247c-.152-.238-.31-.485-.455-.728a32.084 32.084 0 0 0-.972-1.501C9.092.797 8.42.307 7.639.135m1.548 3.787l.241.385c.083.13.166.263.248.397L11.09 6.91c.578.902.42 1.622-.482 2.2l-.23.15c-.156.1-.31.2-.467.297a35.187 35.187 0 0 1-2.042 1.267l-.016.012c-.623.399-.667.897-.627 1.332l.006.063c.216 1.212.638 2.426 1.368 3.93 1.34 2.66 2.875 4.826 4.7 6.63.233.23.487.435.711.616.215.173.418.337.587.502l.035.031.027.026c.189.152.372.244.577.289.509.111.901-.14 1.03-.223l2.766-1.772c.293-.188.737-.39 1.19-.292.486.107.783.512.916.744l2.863 4.467c.562.868.397 1.636-.477 2.22-.265.185-.53.349-.81.522l-.18.113c-.508.308-1.047.647-1.563 1.04-.04.028-.08.054-.12.08-.823.528-1.681.669-2.691.448-.097-.022-.208-.046-.31-.075-1.963-.564-3.634-1.74-4.87-2.703-3.372-2.653-6.11-5.966-8.14-9.847-1.667-3.227-2.635-6.097-3.044-9.033-.257-1.795-.205-3.14.17-4.36a3.22 3.22 0 0 1 1.39-1.828L6.114 1.99c.422-.252.832-.342 1.19-.264.451.099.756.447.933.722l.015.025c.338.49.66 1.006.935 1.45" fill-rule="nonzero" fill="#ffdb86"/></svg><svg width="36" height="44" viewBox="-5 -5 36 44" id="phone-turquoise" x="252" y="47" xmlns="http://www.w3.org/2000/svg"><title>phone</title><path d="M9.198 3.862c.079.128.16.256.242.386l.248.398 1.417 2.211c.58.905.421 1.626-.484 2.206l-.23.149c-.155.101-.31.202-.467.299-.727.478-1.352.876-2.027 1.258l-.021.011-.017.012c-.623.4-.667.9-.627 1.336l.007.063c.215 1.215.638 2.432 1.37 3.94 1.343 2.666 2.883 4.837 4.712 6.645.234.231.488.437.712.618.216.174.42.337.59.503l.033.031a1.356 1.356 0 0 0 .606.315c.51.112.903-.14 1.032-.222l2.772-1.776c.295-.189.74-.393 1.194-.293.487.107.785.512.918.745l2.87 4.478c.564.87.398 1.64-.478 2.226-.265.184-.53.349-.812.523l-.18.113c-.508.309-1.049.649-1.567 1.043l-.12.08c-.825.529-1.685.67-2.698.449a5.114 5.114 0 0 1-.311-.075c-1.967-.565-3.642-1.745-4.881-2.71-3.38-2.66-6.125-5.98-8.16-9.87C3.17 15.718 2.2 12.841 1.79 9.897c-.258-1.799-.205-3.147.17-4.37.244-.789.7-1.388 1.393-1.832l2.765-1.771c.422-.253.834-.343 1.192-.265.452.099.758.448.934.724l.017.024c.339.492.662 1.009.937 1.454M7.646.067c-.786-.172-1.615-.01-2.399.47l-.013.008-2.76 1.786A4.882 4.882 0 0 0 .396 5.05C-.18 6.93-.008 8.847.171 10.124c.44 3.14 1.463 6.18 3.218 9.565 2.146 4.106 5.04 7.607 8.603 10.407 1.372 1.06 3.229 2.357 5.438 2.991.135.037.278.075.41.104 1.505.33 2.886.064 4.107-.786.01-.01.016-.019.026-.021l.01-.01c.414-.323.862-.599 1.336-.892l.103-.063c.423-.257.746-.463 1.048-.666.783-.524 1.29-1.221 1.464-2.016.175-.801-.001-1.64-.51-2.426l-2.85-4.465c-.485-.791-1.16-1.301-1.954-1.475-.791-.173-1.626.004-2.418.511H18.2l-2.625 1.677-.06-.05c-.1-.087-.201-.17-.299-.251l-.154-.127c-.214-.174-.417-.337-.586-.502-1.705-1.69-3.144-3.722-4.401-6.213-.606-1.242-.97-2.244-1.183-3.252l-.017-.074.065-.038c.59-.342 1.154-.708 1.698-1.063l.173-.113c.117-.074.234-.15.35-.227l.334-.216c1.65-1.057 2.032-2.806.976-4.456l-1.444-2.253c-.153-.239-.311-.486-.456-.73-.302-.488-.63-1.01-.976-1.504C9.103.73 8.43.238 7.646.067" fill="#FFB606" fill-rule="evenodd"/></svg><svg width="58" height="58" viewBox="-5 -5 58 58" id="play-circle-small" y="190" xmlns="http://www.w3.org/2000/svg"><title>play-circle-small</title><desc>Created using Figma</desc><g transform="translate(-1221 -820)"><clipPath id="bwa" clip-rule="evenodd"><path d="M1221 820h48v48h-48v-48z" fill="#FFF"/></clipPath><g clip-path="url(#bwa)"><use xlink:href="#bwb" transform="translate(1221 820)" fill="#F6F6F6"/><use xlink:href="#bwc" transform="translate(1223.67 822.667)" fill="#ffdb86"/></g></g><defs><path id="bwb" d="M24 48C10.766 48 0 37.233 0 24S10.766 0 24 0s24 10.767 24 24-10.766 24-24 24z"/><path id="bwc" fill-rule="evenodd" d="M0 21.333c0 11.764 9.57 21.334 21.333 21.334 11.764 0 21.334-9.57 21.334-21.334C42.667 9.57 33.097 0 21.333 0 9.57 0 0 9.57 0 21.333zm29.731-.097L17.865 9.986a.748.748 0 0 0-.526-.208.779.779 0 0 0-.527.207.685.685 0 0 0-.219.532l.003 22.523c.015.16.087.316.217.439.143.136.336.21.524.21.187 0 .38-.068.524-.21l11.865-11.25a.678.678 0 0 0 .005-.993z"/></defs></svg><svg width="46" height="46" viewBox="-5 -5 46 46" id="play-circle-xsmall" x="289" xmlns="http://www.w3.org/2000/svg"><title>play-circle-xsmall</title><desc>Created using Figma</desc><g transform="translate(-2562 435)"><clipPath id="bxa" clip-rule="evenodd"><path d="M2562-435h36v36h-36v-36z" fill="#FFF"/></clipPath><g clip-path="url(#bxa)"><use xlink:href="#bxb" transform="translate(2562 -435)" fill="#F6F6F6"/><use xlink:href="#bxc" transform="translate(2564 -433)" fill="#ffdb86"/></g></g><defs><path id="bxb" d="M18 36C8.075 36 0 27.925 0 18S8.075 0 18 0s18 8.075 18 18-8.075 18-18 18z"/><path id="bxc" fill-rule="evenodd" d="M0 16c0 8.822 7.177 16 16 16s16-7.178 16-16S24.823 0 16 0 0 7.178 0 16zm22.298-.073l-8.9-8.438a.559.559 0 0 0-.394-.156.585.585 0 0 0-.395.156.514.514 0 0 0-.164.399l.002 16.892c.01.12.065.237.163.33a.575.575 0 0 0 .393.156.56.56 0 0 0 .393-.157l8.898-8.437a.508.508 0 0 0 .004-.745z"/></defs></svg><svg width="36" height="35" viewBox="-5 -5 36 35" id="search" x="117" y="291" xmlns="http://www.w3.org/2000/svg"><title>search-turquoise</title><path d="M2.15 10.66c0-5.056 4.113-9.163 9.163-9.163 5.055 0 9.163 4.113 9.163 9.163s-4.108 9.168-9.163 9.168c-5.05 0-9.163-4.113-9.163-9.168m23.287 13.065l-6.075-6.075a10.616 10.616 0 0 0 2.616-6.99C21.978 4.778 17.194 0 11.318 0 5.437 0 .658 4.784.658 10.66c0 5.875 4.784 10.66 10.66 10.66 2.672 0 5.117-.987 6.99-2.617l6.076 6.075a.753.753 0 0 0 .526.222.75.75 0 0 0 .527-1.275" fill="#FFB606" fill-rule="evenodd"/></svg><svg width="36" height="35" viewBox="-5 -5 36 35" id="search-black" x="252" y="210" xmlns="http://www.w3.org/2000/svg"><title>search black</title><path d="M2.15 10.66c0-5.056 4.113-9.163 9.163-9.163 5.055 0 9.163 4.113 9.163 9.163s-4.108 9.168-9.163 9.168c-5.05 0-9.163-4.113-9.163-9.168m23.287 13.065l-6.075-6.075a10.616 10.616 0 0 0 2.616-6.99C21.978 4.778 17.194 0 11.318 0 5.437 0 .658 4.784.658 10.66c0 5.875 4.784 10.66 10.66 10.66 2.672 0 5.117-.987 6.99-2.617l6.076 6.075a.753.753 0 0 0 .526.222.75.75 0 0 0 .527-1.275" fill="#000" fill-rule="evenodd"/></svg><svg width="36" height="35" viewBox="-5 -5 36 35" id="search-white" x="252" y="175" xmlns="http://www.w3.org/2000/svg"><title>search white</title><path d="M2.15 10.66c0-5.056 4.113-9.163 9.163-9.163 5.055 0 9.163 4.113 9.163 9.163s-4.108 9.168-9.163 9.168c-5.05 0-9.163-4.113-9.163-9.168m23.287 13.065l-6.075-6.075a10.616 10.616 0 0 0 2.616-6.99C21.978 4.778 17.194 0 11.318 0 5.437 0 .658 4.784.658 10.66c0 5.875 4.784 10.66 10.66 10.66 2.672 0 5.117-.987 6.99-2.617l6.076 6.075a.753.753 0 0 0 .526.222.75.75 0 0 0 .527-1.275" fill="#fff" fill-rule="evenodd"/></svg><svg width="42" height="35" viewBox="-5 -5 42 35" id="speech-bubbles" x="85" y="248" xmlns="http://www.w3.org/2000/svg"><title>speech-bubbles</title><path d="M25.039 21.923a1.74 1.74 0 0 0-1.223.197l-.037.022a7.72 7.72 0 0 1-1.123.594c-2.244.98-4.715 1.074-6.957.262a8.498 8.498 0 0 1-3.824-2.742c4.269-.3 8.036-3.1 9.196-7.28.636-2.292.413-4.69-.619-6.853 3.076.3 5.857 2.115 7.138 5.014 1.005 2.3.9 4.945-.284 7.251-.368.697-.308 1.609.158 2.385l1.13 1.846-3.555-.696zM9.316 18.657a9.612 9.612 0 0 1-.773-.179 7.756 7.756 0 0 1-1.196-.429l-.04-.017a1.733 1.733 0 0 0-1.233-.024l-3.427 1.191.861-1.992c.35-.829.281-1.74-.176-2.371-1.502-2.123-1.979-4.727-1.309-7.143 1.066-3.78 4.643-6.24 8.58-6.24.847 0 1.71.114 2.567.352a9.434 9.434 0 0 1 4.673 2.953c.328.385.627.796.89 1.234l.065.115c1.165 2.007 1.476 4.302.871 6.481-1.061 3.827-4.7 6.297-8.692 6.24a9.552 9.552 0 0 1-1.66-.171zm19.391 1.362c-.194-.323-.242-.714-.112-.96 1.39-2.703 1.508-5.803.326-8.507-1.642-3.716-5.373-5.915-9.347-5.927-1.43-2.046-3.538-3.533-6.015-4.22C7.937-1.156 2.135 1.936.623 7.301c-.789 2.84-.234 5.893 1.527 8.38.16.222.168.607.022.954L0 21.659l6.556-2.28a.278.278 0 0 1 .2-.001c.407.188.877.357 1.398.501.648.18 1.298.297 1.943.357 1.159 1.896 2.931 3.341 5.108 4.129 1.17.424 2.394.635 3.622.635 1.493 0 2.993-.312 4.411-.932.495-.217.937-.45 1.313-.693a.285.285 0 0 1 .204-.026l6.806 1.332-2.854-4.662z" fill="#000" fill-rule="evenodd"/></svg><svg width="44" height="39" viewBox="-5 -5 44 39" id="twitter" x="289" y="90" xmlns="http://www.w3.org/2000/svg"><title>twitter</title><g transform="translate(1 1)" fill="none" fill-rule="evenodd"><path d="M31.694 3.19a.597.597 0 0 0-.703.019c-.272.209-.712.374-1.187.502 1.236-1.409 1.263-2.35 1.25-2.566a.614.614 0 0 0-.346-.517.595.595 0 0 0-.612.06 6.35 6.35 0 0 1-3.6 1.266A6.626 6.626 0 0 0 21.84.05c-3.742 0-6.786 3.137-6.786 6.992 0 .332.023.663.068.99C8.638 7.959 3.371 1.64 3.317 1.574a.6.6 0 0 0-.987.087c-1.866 3.292-.617 6.183.524 7.84a3.955 3.955 0 0 1-.463-.292.596.596 0 0 0-.628-.058.617.617 0 0 0-.337.541c-.05 3.137 1.434 4.934 2.83 5.928a.603.603 0 0 0-.504.195.62.62 0 0 0-.133.595c.964 3.21 3.333 4.301 4.84 4.671C5.36 23.533.8 22.743.75 22.735a.602.602 0 0 0-.66.357.62.62 0 0 0 .187.735c3.27 2.538 7.182 3.1 10.008 3.1 2.137 0 3.654-.322 3.799-.354 14.312-3.45 14.715-16.78 14.682-18.964 2.687-2.541 3.107-3.509 3.171-3.748a.618.618 0 0 0-.243-.672m-3.948 3.707a.62.62 0 0 0-.194.493c.038.59.77 14.491-13.735 17.986-.066.015-5.832 1.238-10.83-1.28 2.112-.06 5.14-.622 7.25-3.03a.62.62 0 0 0 .099-.663.603.603 0 0 0-.55-.36H9.78c-.03.02-3.201-.004-4.653-3.072.584.034 1.306-.003 1.88-.272a.617.617 0 0 0-.129-1.159c-.162-.035-3.693-.837-4.187-4.754.536.239 1.221.433 1.899.328a.607.607 0 0 0 .49-.436.621.621 0 0 0-.184-.635C4.745 9.908 1.429 6.912 3 3.047 4.708 4.867 9.763 9.6 15.888 9.242a.604.604 0 0 0 .452-.25.625.625 0 0 0 .1-.513 6.005 6.005 0 0 1-.176-1.437c0-3.179 2.503-5.765 5.579-5.765a5.45 5.45 0 0 1 3.973 1.72.6.6 0 0 0 .423.187c.64.009 1.693-.068 2.882-.552-.344.434-.847.954-1.588 1.546a.62.62 0 0 0-.19.707.602.602 0 0 0 .611.388c.14-.012.858-.076 1.67-.254a34.66 34.66 0 0 1-1.878 1.877" fill="#FFB606" fill-rule="nonzero"/><path d="M31.694 3.19a.597.597 0 0 0-.703.019c-.272.209-.712.374-1.187.502 1.236-1.409 1.263-2.35 1.25-2.566a.614.614 0 0 0-.346-.517.595.595 0 0 0-.612.06 6.35 6.35 0 0 1-3.6 1.266A6.626 6.626 0 0 0 21.84.05c-3.742 0-6.786 3.137-6.786 6.992 0 .332.023.663.068.99C8.638 7.959 3.371 1.64 3.317 1.574a.6.6 0 0 0-.987.087c-1.866 3.292-.617 6.183.524 7.84a3.955 3.955 0 0 1-.463-.292.596.596 0 0 0-.628-.058.617.617 0 0 0-.337.541c-.05 3.137 1.434 4.934 2.83 5.928a.603.603 0 0 0-.504.195.62.62 0 0 0-.133.595c.964 3.21 3.333 4.301 4.84 4.671C5.36 23.533.8 22.743.75 22.735a.602.602 0 0 0-.66.357.62.62 0 0 0 .187.735c3.27 2.538 7.182 3.1 10.008 3.1 2.137 0 3.654-.322 3.799-.354 14.312-3.45 14.715-16.78 14.682-18.964 2.687-2.541 3.107-3.509 3.171-3.748a.618.618 0 0 0-.243-.672zm-3.948 3.706a.62.62 0 0 0-.194.493c.038.59.77 14.491-13.735 17.986-.066.015-5.832 1.238-10.83-1.28 2.112-.06 5.14-.622 7.25-3.03a.62.62 0 0 0 .099-.663.603.603 0 0 0-.55-.36H9.78c-.03.02-3.201-.004-4.653-3.072.584.034 1.306-.003 1.88-.272a.617.617 0 0 0-.129-1.159c-.162-.035-3.693-.837-4.187-4.754.536.239 1.221.433 1.899.328a.607.607 0 0 0 .49-.436.621.621 0 0 0-.184-.635C4.745 9.908 1.429 6.912 3 3.047 4.708 4.867 9.763 9.6 15.888 9.242a.604.604 0 0 0 .452-.25.625.625 0 0 0 .1-.513 6.005 6.005 0 0 1-.176-1.437c0-3.179 2.503-5.765 5.579-5.765a5.45 5.45 0 0 1 3.973 1.72.6.6 0 0 0 .423.187c.64.009 1.693-.068 2.882-.552-.344.434-.847.954-1.588 1.546a.62.62 0 0 0-.19.707.602.602 0 0 0 .611.388c.14-.012.858-.076 1.67-.254a34.66 34.66 0 0 1-1.878 1.877z" stroke="#FFB606" stroke-width=".5"/></g></svg><svg width="63" height="63" viewBox="-5 -5 63 63" id="twitter-circle" x="126" y="64" xmlns="http://www.w3.org/2000/svg"><title>twitter-circle</title><g fill="#000" fill-rule="evenodd"><path d="M37.456 19.568c.821-.477 2.039-2.04 2.34-3.282-.79.543-2.605 1.335-3.503 1.335-1.022-1.147-2.459-1.864-4.056-1.864-3.099 0-5.61 2.705-5.61 6.043 0 .463.05.913.143 1.346-4.204-.116-9.12-2.385-11.89-6.269-1.7 3.172-.229 6.7 1.703 7.984-.66.055-1.877-.081-2.45-.68-.04 2.103.9 4.892 4.329 5.903-.662.384-1.827.274-2.338.19.18 1.779 2.49 4.103 5.016 4.103-.9 1.12-3.97 3.156-7.77 2.507 2.58 1.694 5.59 2.673 8.778 2.673 9.053 0 16.081-7.9 15.704-17.647-.002-.06 0-.087 0-.11l-.002-.091a10.082 10.082 0 0 0 2.719-3.092c-.459.273-1.831.815-3.113.951z"/><path d="M26.476 3.151c-12.86 0-23.325 10.464-23.325 23.326s10.464 23.326 23.325 23.326c12.863 0 23.327-10.464 23.327-23.326S39.34 3.151 26.476 3.151m0 49.803C11.877 52.954 0 41.077 0 26.477S11.877 0 26.476 0c14.601 0 26.479 11.878 26.479 26.477 0 14.6-11.878 26.477-26.479 26.477"/></g></svg><svg width="63" height="63" viewBox="-5 -5 63 63" id="twitter-circle-turquoise" x="63" y="64" xmlns="http://www.w3.org/2000/svg"><title>twitter-circle-torquoise</title><g fill="#ffdb86" fill-rule="evenodd"><path d="M37.456 19.568c.821-.477 2.039-2.04 2.34-3.282-.79.543-2.605 1.335-3.503 1.335-1.022-1.147-2.459-1.864-4.056-1.864-3.099 0-5.61 2.705-5.61 6.043 0 .463.05.913.143 1.346-4.204-.116-9.12-2.385-11.89-6.269-1.7 3.172-.229 6.7 1.703 7.984-.66.055-1.877-.081-2.45-.68-.04 2.103.9 4.892 4.329 5.903-.662.384-1.827.274-2.338.19.18 1.779 2.49 4.103 5.016 4.103-.9 1.12-3.97 3.156-7.77 2.507 2.58 1.694 5.59 2.673 8.778 2.673 9.053 0 16.081-7.9 15.704-17.647-.002-.06 0-.087 0-.11l-.002-.091a10.082 10.082 0 0 0 2.719-3.092c-.459.273-1.831.815-3.113.951z"/><path d="M26.476 3.151c-12.86 0-23.325 10.464-23.325 23.326s10.464 23.326 23.325 23.326c12.863 0 23.327-10.464 23.327-23.326S39.34 3.151 26.476 3.151m0 49.803C11.877 52.954 0 41.077 0 26.477S11.877 0 26.476 0c14.601 0 26.479 11.878 26.479 26.477 0 14.6-11.878 26.477-26.479 26.477"/></g></svg><svg width="63" height="63" viewBox="-5 -5 63 63" id="twitter-circle-turquoise-dark" y="64" xmlns="http://www.w3.org/2000/svg"><title>twitter-circle-torquoise-dark</title><g fill="#FFB606" fill-rule="evenodd"><path d="M37.456 19.568c.821-.477 2.039-2.04 2.34-3.282-.79.543-2.605 1.335-3.503 1.335-1.022-1.147-2.459-1.864-4.056-1.864-3.099 0-5.61 2.705-5.61 6.043 0 .463.05.913.143 1.346-4.204-.116-9.12-2.385-11.89-6.269-1.7 3.172-.229 6.7 1.703 7.984-.66.055-1.877-.081-2.45-.68-.04 2.103.9 4.892 4.329 5.903-.662.384-1.827.274-2.338.19.18 1.779 2.49 4.103 5.016 4.103-.9 1.12-3.97 3.156-7.77 2.507 2.58 1.694 5.59 2.673 8.778 2.673 9.053 0 16.081-7.9 15.704-17.647-.002-.06 0-.087 0-.11l-.002-.091a10.082 10.082 0 0 0 2.719-3.092c-.459.273-1.831.815-3.113.951z"/><path d="M26.476 3.151c-12.86 0-23.325 10.464-23.325 23.326s10.464 23.326 23.325 23.326c12.863 0 23.327-10.464 23.327-23.326S39.34 3.151 26.476 3.151m0 49.803C11.877 52.954 0 41.077 0 26.477S11.877 0 26.476 0c14.601 0 26.479 11.878 26.479 26.477 0 14.6-11.878 26.477-26.479 26.477"/></g></svg><svg width="44" height="43" viewBox="-5 -5 44 43" id="user" y="248" xmlns="http://www.w3.org/2000/svg"><title>user</title><path d="M25.102 17.917a10.958 10.958 0 0 0 2.44-6.903C27.543 4.941 22.602 0 16.529 0 10.456 0 5.516 4.941 5.516 11.014c0 2.612.915 5.013 2.44 6.903C3.189 20.82 0 26.067 0 32.043h1.9c0-5.443 2.99-10.2 7.412-12.719a10.967 10.967 0 0 0 7.217 2.704c2.758 0 5.282-1.022 7.215-2.704 4.422 2.52 7.412 7.276 7.412 12.72h1.9c0-5.978-3.188-11.224-7.954-14.127M16.529 1.9c5.024 0 9.113 4.09 9.113 9.114a9.107 9.107 0 0 1-3.805 7.4.061.061 0 0 0-.011-.005 9.064 9.064 0 0 1-5.297 1.705 9.065 9.065 0 0 1-5.299-1.705.061.061 0 0 0-.011.005 9.107 9.107 0 0 1-3.804-7.4c0-5.025 4.089-9.114 9.114-9.114" fill="#FFB606" fill-rule="evenodd"/></svg><svg width="38" height="37" viewBox="-5 -5 38 37" id="watch" x="79" y="291" xmlns="http://www.w3.org/2000/svg"><title>watch</title><defs><path id="cha" d="M13.967.95H0V28h27.934V.95H13.967z"/></defs><g transform="translate(0 -1)" fill="none" fill-rule="evenodd"><g transform="translate(0 .05)"><mask id="chb" fill="#fff"><use xlink:href="#cha"/></mask><path d="M13.967 28c7.72 0 13.967-6.074 13.967-13.525C27.934 6.999 21.662.95 13.967.95S0 6.999 0 14.475C0 21.926 6.247 28 13.967 28m0-25.158c6.634 0 12.013 5.209 12.013 11.633 0 6.424-5.38 11.633-12.013 11.633-6.634 0-12.013-5.233-12.013-11.633 0-6.424 5.379-11.633 12.013-11.633" fill="#FFB606" mask="url(#chb)"/></g><path d="M13.316 16.114h4.656c.555 0 .988-.42.988-.958 0-.537-.433-.958-.988-.958h-3.667v-5.56c0-.537-.434-.958-.99-.958-.554 0-.988.421-.988.958v6.518c0 .537.434.958.989.958" fill="#FFB606"/></g></svg></svg>