<?xml version="1.0" encoding="UTF-8"?><svg width="35" height="35" viewBox="-5 -5 35 35" xmlns="http://www.w3.org/2000/svg"><title>bars</title><g transform="translate(.532)" fill="#000" fill-rule="evenodd"><path d="M23.204.06H.835C.43.06.107.4.107.823s.323.762.728.762h22.37c.404 0 .728-.34.728-.762s-.324-.761-.729-.761M23.204 7.865H.835c-.405 0-.728.339-.728.761 0 .423.323.762.728.762h22.37c.404 0 .728-.34.728-.762s-.324-.761-.729-.761M23.204 23.473H.835c-.405 0-.728.34-.728.761 0 .423.323.762.728.762h22.37c.404 0 .728-.34.728-.762s-.324-.761-.729-.761M23.204 15.669H.835c-.405 0-.728.339-.728.761 0 .423.323.762.728.762h22.37c.404 0 .728-.34.728-.762s-.324-.761-.729-.761"/></g></svg>