<?xml version="1.0" encoding="UTF-8"?><svg width="45" height="44" viewBox="-5 -5 45 44" xmlns="http://www.w3.org/2000/svg"><title>calendar</title><g transform="translate(0 -1)" fill="#FFB606" fill-rule="evenodd"><path d="M31.24 4.132h-4.618V2.047c0-.578-.479-1.047-1.066-1.047-.588 0-1.066.469-1.066 1.047v2.085h-6.384V2.047c0-.578-.48-1.047-1.067-1.047-.588 0-1.066.469-1.066 1.047v2.085h-6.39V2.047C9.583 1.469 9.104 1 8.516 1c-.587 0-1.059.469-1.059 1.047v2.085H2.84C1.274 4.132 0 5.382 0 6.918v24.728c0 1.542 1.274 2.792 2.84 2.792h28.4c1.564 0 2.838-1.25 2.838-2.792V6.918c0-1.536-1.274-2.786-2.839-2.786zm.706 27.514a.702.702 0 0 1-.707.699H2.84a.702.702 0 0 1-.707-.7V6.919c0-.382.317-.694.707-.694h4.618v2.093c0 .576.472 1.039 1.06 1.039.587 0 1.066-.463 1.066-1.04V6.225h6.39v2.093c0 .576.478 1.039 1.066 1.039.587 0 1.067-.463 1.067-1.04V6.225h6.384v2.093c0 .576.478 1.039 1.066 1.039.587 0 1.066-.463 1.066-1.04V6.225h4.617c.39 0 .707.312.707.694v24.728z"/><path d="M7.457 16.672h4.258V13.54H7.457zM7.457 21.896h4.258v-3.132H7.457zM7.457 27.12h4.258v-3.13H7.457zM14.907 27.12h4.259v-3.13h-4.259zM14.907 21.896h4.259v-3.132h-4.259zM14.907 16.672h4.259V13.54h-4.259zM22.363 27.12h4.258v-3.13h-4.258zM22.363 21.896h4.258v-3.132h-4.258zM22.363 16.672h4.258V13.54h-4.258z"/></g></svg>