<?xml version="1.0" encoding="UTF-8"?><svg width="35" height="35" viewBox="-5 -5 35 35" xmlns="http://www.w3.org/2000/svg"><title>close</title><g fill="#000" fill-rule="evenodd"><path d="M1.256 24.686L12.692 13.25l1.876-1.876L24.686 1.256c.28-.28.27-.738-.023-1.03-.292-.292-.75-.303-1.03-.023L13.515 10.321l-1.876 1.876L.204 23.633c-.28.28-.27.739.022 1.03.292.293.75.303 1.03.023"/><path d="M24.686 23.633L13.25 12.197l-1.876-1.876L1.256.203C.976-.077.518-.066.226.226c-.292.292-.303.75-.023 1.03l10.118 10.118 1.876 1.876 11.436 11.436c.28.28.739.27 1.03-.023.292-.291.302-.75.023-1.03"/></g></svg>