<?xml version="1.0" encoding="UTF-8"?><svg width="63" height="63" viewBox="-5 -5 63 63" xmlns="http://www.w3.org/2000/svg"><title>facebook-circle</title><g fill="#000" fill-rule="evenodd"><path d="M33.528 21.882h-5.161V18.13c0-1.151 1.194-1.418 1.752-1.418h3.335v-5.062l-3.822-.02c-5.214 0-6.405 3.775-6.405 6.195v4.056h-3.784v5.215h3.784v14.08h5.14v-14.08h4.364l.797-5.215z"/><path d="M26.486 3.183C13.622 3.183 3.159 13.6 3.159 26.404c0 12.805 10.463 23.222 23.327 23.222 12.86 0 23.324-10.417 23.324-23.222 0-12.804-10.463-23.22-23.324-23.22m0 49.579C11.886 52.763.01 40.938.01 26.404.01 11.87 11.887.046 26.486.046c14.599 0 26.476 11.824 26.476 26.358S41.085 52.763 26.486 52.763"/></g></svg>