<?xml version="1.0" encoding="UTF-8"?><svg width="63" height="63" viewBox="-5 -5 63 63" xmlns="http://www.w3.org/2000/svg"><title>instagram-circle</title><g fill-rule="nonzero" fill="#FFB606"><path d="M26.534 52.903C12 52.903.175 41.079.175 26.545S12 .186 26.534.186c14.534 0 26.358 11.825 26.358 26.358 0 14.534-11.824 26.359-26.358 26.359zm0-49.58c-12.805 0-23.222 10.417-23.222 23.221 0 12.805 10.417 23.222 23.222 23.222 12.804 0 23.22-10.417 23.22-23.222 0-12.804-10.416-23.22-23.22-23.22z"/><g transform="translate(14.022 14.022)"><path d="M12.512 8.363a4.164 4.164 0 0 0-4.16 4.159 4.164 4.164 0 0 0 4.16 4.159 4.163 4.163 0 0 0 4.158-4.159 4.163 4.163 0 0 0-4.158-4.159z"/><path d="M18.026.214H6.996A6.8 6.8 0 0 0 .203 7.007v11.03a6.8 6.8 0 0 0 6.793 6.793h11.03a6.8 6.8 0 0 0 6.793-6.793V7.007A6.8 6.8 0 0 0 18.026.214zm-5.514 18.65a6.35 6.35 0 0 1-6.343-6.342 6.35 6.35 0 0 1 6.343-6.342 6.35 6.35 0 0 1 6.342 6.342 6.35 6.35 0 0 1-6.342 6.343zm9.076-11.802a1.62 1.62 0 0 1-1.133.47c-.42 0-.834-.173-1.13-.47a1.615 1.615 0 0 1-.471-1.133 1.607 1.607 0 0 1 1.602-1.602c.422 0 .835.17 1.132.47.299.296.47.71.47 1.132 0 .421-.171.834-.47 1.133z"/></g></g></svg>