<?xml version="1.0" encoding="UTF-8"?><svg width="39" height="39" viewBox="-5 -5 39 39" xmlns="http://www.w3.org/2000/svg"><title>linkedin</title><path d="M6.384 8.164H.933a.68.68 0 0 0-.676.682v19.25a.68.68 0 0 0 .676.682h5.452a.68.68 0 0 0 .675-.682V8.846a.68.68 0 0 0-.676-.682zm-.676 19.25h-4.1V9.53h4.1v17.885zM21.584 7.93c-2.647 0-4.38 1.154-5.385 2.157l-.124-1.306a.678.678 0 0 0-.672-.617h-.014l-4.97.096a.67.67 0 0 0-.48.216.686.686 0 0 0-.181.497c.062 1.406.06 3.048.057 4.95v14.27c0 .377.302.682.675.682h5.452a.679.679 0 0 0 .675-.682V17.065c0-.568.049-.979.146-1.224.34-.874 1.46-1.777 2.748-1.777 1.667 0 2.662 1.281 2.662 3.428v10.701a.68.68 0 0 0 .676.682h5.356a.679.679 0 0 0 .676-.682v-11.4c0-5.55-2.729-8.863-7.297-8.863zM27.53 27.51h-4.006V17.492c0-2.912-1.575-4.793-4.013-4.793-1.935 0-3.508 1.362-4.004 2.64-.164.414-.24.963-.24 1.726v10.446h-4.102V13.926c.003-1.616.005-3.046-.032-4.315l3.657-.07.21 2.2c.034.35.325.616.673.616h.115c.233 0 .45-.12.573-.32.398-.644 1.952-2.742 5.223-2.742 3.78 0 5.946 2.733 5.946 7.499V27.51zM3.887.136C1.694.136.103 1.662.103 3.766c0 2.102 1.56 3.628 3.708 3.628 2.215 0 3.822-1.526 3.822-3.645C7.584 1.622 6.043.136 3.887.136zM3.81 6.03c-1.388 0-2.357-.93-2.357-2.263 0-1.355.978-2.265 2.433-2.265 1.423 0 2.364.895 2.395 2.265 0 1.354-.993 2.263-2.471 2.263z" fill-rule="nonzero" fill="#FFB606"/></svg>