<?xml version="1.0" encoding="UTF-8"?><svg width="37" height="47" viewBox="-5 -5 37 47" xmlns="http://www.w3.org/2000/svg"><title>mail-box-light</title><g fill-rule="nonzero" fill="#ffdb86"><path d="M21.304 19.768h-8.857a.585.585 0 1 0 0 1.17h8.857a.585.585 0 1 0 0-1.17"/><path d="M22.634 9.983a3.546 3.546 0 0 1-.67-1.123l-2.417-7.405c-.114-.35-.51-.637-.879-.637H1.632c-.368 0-.582.288-.474.641l2.44 7.973c.108.353.196.944.197 1.312l.016 19.769c0 .368.197.9.438 1.179l2.969 3.45c.24.278.74.507 1.108.507h17.17a.674.674 0 0 0 .672-.67l.032-20.577c0-.369-.207-.89-.462-1.156l-3.104-3.263zM2.07 2.167c-.108-.353.104-.641.473-.641h15.72c.37 0 .764.287.877.638l2.117 6.563c.114.352-.096.639-.464.639H4.97c-.37 0-.76-.289-.87-.641l-2.03-6.558zm5.585 31.539c0 .369-.202.447-.45.173l-2.236-2.471c-.247-.274-.45-.8-.45-1.169V11.39c0-.369.204-.448.452-.175l2.232 2.45c.249.272.452.797.452 1.166v18.876zM5.418 10.653c-.248-.272-.15-.495.22-.495h15.504c.368 0 .873.224 1.12.497l2.303 2.546c.248.273.148.497-.22.497H8.864c-.37 0-.875-.223-1.123-.496l-2.324-2.549zM25.46 34.271c0 .368-.302.67-.67.67H9.033a.673.673 0 0 1-.67-.67V15.077c0-.369.301-.67.67-.67h15.754c.37 0 .671.301.671.67v19.194z"/><path d="M26.494 12.945l-3.195-3.36a3.498 3.498 0 0 1-.671-1.123L20.094.701c-.114-.35-.51-.637-.879-.637H.612C.243.064.03.352.138.704l2.706 8.842c.108.352.196.944.196 1.311l.016 19.936c.001.37.197.9.439 1.18l3.376 3.923c.241.279.74.509 1.108.509H26.25c.37 0 .671-.302.671-.671l.034-21.632c0-.369-.207-.89-.461-1.157zM4.657 7.969L3.094 2.921c-.109-.352.104-.64.473-.64h14.147c.37 0 .763.287.877.639l1.63 5.053c.113.35-.097.639-.466.639H5.527c-.368 0-.76-.289-.87-.643zm2.244 23.779c0 .367-.203.446-.451.172l-.726-.803c-.247-.273-.45-.8-.45-1.169v-16.61c0-.37.203-.448.451-.175l.725.793c.248.272.45.798.45 1.167v16.625zm.226-20.34c-.248-.273-.15-.496.218-.496h13.462c.369 0 .873.225 1.12.498l.937 1.037c.249.273.148.496-.22.496H9.196c-.37 0-.874-.223-1.122-.494l-.948-1.04zm17.577 22.107c0 .371-.302.671-.67.671H9.789c-.369 0-.67-.3-.67-.67V15.832c0-.37.301-.671.67-.671h14.245c.368 0 .67.3.67.67v17.683z"/><path d="M21.304 22.79h-8.857a.585.585 0 1 0 0 1.17h8.857a.585.585 0 1 0 0-1.17"/></g></svg>