<?xml version="1.0" encoding="UTF-8"?><svg width="33" height="42" viewBox="-5 -5 33 42" xmlns="http://www.w3.org/2000/svg"><title>map-marker</title><g fill-rule="nonzero" fill="#FFB606"><path d="M19.526 3.366A11.385 11.385 0 0 0 11.31.065a11.39 11.39 0 0 0-7.97 3.4 11.398 11.398 0 0 0-3.336 7.998 11.506 11.506 0 0 0 1.283 5.342l5.13 8.597 2.711 4.545a2.708 2.708 0 0 0 2.344 1.331c.97 0 1.847-.498 2.344-1.33l2.712-4.546 5.129-8.596a11.342 11.342 0 0 0 1.284-5.274c0-3.094-1.213-5.993-3.415-8.166M20.08 15.9l-7.826 13.116a.896.896 0 0 1-.781.444.895.895 0 0 1-.781-.444L2.865 15.9a9.547 9.547 0 0 1-1.042-4.425c.031-5.216 4.298-9.518 9.512-9.59a9.585 9.585 0 0 1 6.913 2.778 9.58 9.58 0 0 1 2.874 6.87c0 1.538-.35 3.007-1.042 4.367"/><path d="M11.473 7.38a4.156 4.156 0 0 0-4.152 4.152 4.157 4.157 0 0 0 4.152 4.152 4.157 4.157 0 0 0 4.152-4.152 4.156 4.156 0 0 0-4.152-4.152m0 6.485a2.335 2.335 0 0 1-2.333-2.333A2.335 2.335 0 0 1 11.473 9.2a2.335 2.335 0 0 1 2.332 2.332 2.335 2.335 0 0 1-2.332 2.333"/></g></svg>