<?xml version="1.0" encoding="UTF-8"?><svg width="30" height="42" viewBox="-5 -5 30 42" xmlns="http://www.w3.org/2000/svg"><title>mobile-phone</title><g fill-rule="nonzero" fill="#FFB606"><path d="M16.452.006H2.805A2.719 2.719 0 0 0 .09 2.722v26.52a2.719 2.719 0 0 0 2.715 2.715h13.647a2.719 2.719 0 0 0 2.716-2.716V2.721A2.719 2.719 0 0 0 16.452.007M2.805 1.915h13.647c.445 0 .807.362.807.807v20.023H1.998V2.722c0-.445.362-.807.807-.807m13.647 28.134H2.805a.809.809 0 0 1-.807-.808V24.72h15.261v4.522a.808.808 0 0 1-.807.808"/><path d="M9.629 25.804a1.621 1.621 0 1 0 0 3.243 1.621 1.621 0 0 0 0-3.243"/></g></svg>