<?xml version="1.0" encoding="UTF-8"?><svg width="41" height="43" viewBox="-5 -5 41 43" xmlns="http://www.w3.org/2000/svg"><title>paper</title><g transform="translate(0 -1)" fill="#FFB606" fill-rule="evenodd"><path d="M27.368 1H2.645C1.186 1 0 2.158 0 3.582V30.46c0 1.424 1.186 2.583 2.645 2.583h24.723c1.458 0 2.644-1.16 2.644-2.583V3.582C30.012 2.158 28.826 1 27.368 1zm.378 29.46c0 .2-.173.369-.377.369H2.645a.379.379 0 0 1-.378-.37V3.583c0-.2.173-.37.378-.37H27.37c.204 0 .377.17.377.37V30.46z"/><path d="M18.6 5.288H5.53c-.832 0-1.51.662-1.51 1.476v7.26c0 .815.678 1.477 1.51 1.477H18.6c.834 0 1.511-.662 1.511-1.476V6.764c0-.814-.677-1.476-1.51-1.476zm-.003 8.738H5.531V6.764H18.6l-.002 7.262zm.002.738v-.738h.002l-.002.738zM16.205 18.07H4.775a.746.746 0 0 0-.755.738c0 .408.338.737.755.737h11.43a.746.746 0 0 0 .756-.737.747.747 0 0 0-.756-.738M24.605 22.24H4.775a.747.747 0 0 0-.755.738c0 .408.339.738.756.738h19.829c.417 0 .756-.33.756-.738a.747.747 0 0 0-.756-.738M24.605 26.41H4.775a.747.747 0 0 0-.755.737c0 .408.339.738.756.738h19.829c.417 0 .756-.33.756-.738a.748.748 0 0 0-.756-.737M24.605 18.07h-5.13a.746.746 0 0 0-.755.738c0 .408.337.737.755.737h5.13a.746.746 0 0 0 .756-.737.748.748 0 0 0-.756-.738"/></g></svg>