<?xml version="1.0" encoding="UTF-8"?><svg width="63" height="64" viewBox="-5 -5 63 64" xmlns="http://www.w3.org/2000/svg"><title>paper-circle</title><g fill-rule="nonzero" fill="#FFB606"><path d="M35.843 14.307h-18.64c-1.1 0-1.995.894-1.995 1.993v20.752c0 1.1.895 1.994 1.994 1.994h18.641c1.1 0 1.994-.895 1.994-1.994V16.3c0-1.099-.895-1.993-1.994-1.993zm.285 22.745c0 .154-.13.285-.285.285h-18.64a.289.289 0 0 1-.285-.285V16.3c0-.154.13-.285.285-.285h18.64c.155 0 .285.13.285.285v20.752z"/><path d="M29.232 17.617h-9.853a1.14 1.14 0 0 0-1.14 1.14v5.606a1.14 1.14 0 0 0 1.14 1.14h9.853a1.14 1.14 0 0 0 1.139-1.14v-5.606c0-.628-.511-1.14-1.14-1.14zm-.002 6.747H19.38v-5.607h9.853l-.002 5.607zm.002.57v-.57.57zM27.427 27.486h-8.618a.57.57 0 0 0 0 1.139h8.618a.57.57 0 1 0 0-1.14M33.76 30.705H18.81a.57.57 0 1 0 0 1.14h14.95a.57.57 0 1 0 0-1.14M33.76 33.925H18.81a.57.57 0 1 0 0 1.139h14.95a.57.57 0 1 0 0-1.139M33.76 27.486h-3.868a.57.57 0 1 0 0 1.139h3.867a.57.57 0 1 0 0-1.14"/><path d="M26.522 53.153C11.923 53.153.046 41.276.046 26.676S11.923.2 26.522.2C41.122.199 53 12.077 53 26.676c0 14.6-11.878 26.477-26.478 26.477m0-49.803C13.66 3.35 3.196 13.814 3.196 26.676S13.66 50.002 26.522 50.002s23.326-10.464 23.326-23.326S39.384 3.35 26.522 3.35"/></g></svg>