<?xml version="1.0" encoding="UTF-8"?><svg width="40" height="41" viewBox="-5 -5 40 41" xmlns="http://www.w3.org/2000/svg"><title>pencil</title><path d="M1.06 30.64l.059-.01.012-.002.02-.006a.882.882 0 0 0 .056-.016l.008-.002 7.8-1.758v-.004l18.72-19.117.667-.681c2.085-2.128 2.155-5.52.157-7.56-1.998-2.039-5.32-1.968-7.403.159l-.668.682L1.763 21.446l.003.003L.045 29.41l-.002.008c-.006.018-.01.037-.015.056l-.006.021-.002.013-.01.059-.005.036c-.002.017-.002.036-.003.054L0 29.7a.59.59 0 0 0 .002.043c0 .018 0 .036.003.054 0 .011.003.023.005.035l.01.06c0 .005 0 .008.002.012 0 .008.004.015.006.022l.015.057.013.039.017.045a.613.613 0 0 0 .038.081l.026.047.02.031a1.678 1.678 0 0 0 .054.075c.01.013.02.026.032.038l.03.032.03.03a.409.409 0 0 0 .039.033l.029.024.043.031a.55.55 0 0 0 .077.047l.035.018.044.021.045.017.038.013.055.016.02.006.013.002.06.01.034.005.052.004a.632.632 0 0 0 .043.001l.042-.001a.945.945 0 0 0 .053-.004c.012 0 .023-.002.035-.004zm6.39-3.386l-5.292 1.193 1.168-5.405 4.124 4.212zM26.466 8.429l-.045-.046L9.01 26.161 7.36 24.476 24.775 6.691l1.697 1.732-.006.006zm.77-5.593c1.057 1.081 1.23 2.793.47 4.144l-4.528-4.624c1.322-.777 2.999-.6 4.058.48zm-5.472.779l1.696 1.733L6.045 23.133l-1.651-1.686 17.41-17.779-.046-.047.006-.006z" fill="#FFB606" fill-rule="evenodd"/></svg>