<?xml version="1.0" encoding="UTF-8"?><svg width="63" height="63" viewBox="-5 -5 63 63" xmlns="http://www.w3.org/2000/svg"><title>pencil-circle</title><g fill-rule="nonzero" fill="#FFB606"><path d="M14.151 39.67a.68.68 0 0 0 .063-.01l.019-.005a.946.946 0 0 0 .049-.014l.006-.001 6.91-1.525v-.003l16.58-16.581.591-.591c1.847-1.846 1.908-4.788.138-6.558-1.77-1.768-4.71-1.706-6.556.139l-.592.59-16.585 16.586.003.002-1.524 6.905-.002.007-.014.048-.005.019c0 .004 0 .007-.002.01a.552.552 0 0 0-.008.053l-.005.03-.003.047a.66.66 0 0 0 0 .075l.003.047.005.03a.642.642 0 0 0 .008.052l.002.011.005.019c.005.016.008.033.014.049a.479.479 0 0 0 .012.034l.014.04a.97.97 0 0 0 .018.038l.016.031a.422.422 0 0 0 .023.04l.018.028a.769.769 0 0 0 .047.065l.029.033.026.028.028.026a.65.65 0 0 0 .033.028l.027.021a.904.904 0 0 0 .065.045l.04.023.032.016c.013.006.025.012.039.017.013.005.026.011.04.015.01.005.022.008.033.012l.049.014.019.004.01.002a.643.643 0 0 0 .053.01l.03.003.046.004h.076l.046-.004c.011 0 .021-.002.031-.003zm5.66-2.936l-4.687 1.035 1.034-4.688 3.653 3.653zm16.843-16.327l-.04-.04-15.42 15.42-1.463-1.463L35.157 18.9l1.502 1.503-.005.005zm.682-4.852c.936.938 1.09 2.423.416 3.594l-4.01-4.01c1.171-.674 2.656-.52 3.594.416zm-4.847.676l1.503 1.503-15.426 15.425-1.461-1.462 15.42-15.42-.041-.04.005-.006z"/><path d="M26.504 52.746C11.97 52.746.146 40.922.146 26.388S11.97.029 26.504.029s26.359 11.825 26.359 26.359c0 14.534-11.825 26.358-26.359 26.358m0-49.58C13.7 3.166 3.283 13.583 3.283 26.388c0 12.804 10.417 23.22 23.221 23.22 12.805 0 23.222-10.416 23.222-23.22 0-12.805-10.417-23.222-23.222-23.222"/></g></svg>