<?xml version="1.0" encoding="UTF-8"?><svg width="36" height="44" viewBox="-5 -5 36 44" xmlns="http://www.w3.org/2000/svg"><title>phone</title><path d="M9.198 3.862c.079.128.16.256.242.386l.248.398 1.417 2.211c.58.905.421 1.626-.484 2.206l-.23.149c-.155.101-.31.202-.467.299-.727.478-1.352.876-2.027 1.258l-.021.011-.017.012c-.623.4-.667.9-.627 1.336l.007.063c.215 1.215.638 2.432 1.37 3.94 1.343 2.666 2.883 4.837 4.712 6.645.234.231.488.437.712.618.216.174.42.337.59.503l.033.031a1.356 1.356 0 0 0 .606.315c.51.112.903-.14 1.032-.222l2.772-1.776c.295-.189.74-.393 1.194-.293.487.107.785.512.918.745l2.87 4.478c.564.87.398 1.64-.478 2.226-.265.184-.53.349-.812.523l-.18.113c-.508.309-1.049.649-1.567 1.043l-.12.08c-.825.529-1.685.67-2.698.449a5.114 5.114 0 0 1-.311-.075c-1.967-.565-3.642-1.745-4.881-2.71-3.38-2.66-6.125-5.98-8.16-9.87C3.17 15.718 2.2 12.841 1.79 9.897c-.258-1.799-.205-3.147.17-4.37.244-.789.7-1.388 1.393-1.832l2.765-1.771c.422-.253.834-.343 1.192-.265.452.099.758.448.934.724l.017.024c.339.492.662 1.009.937 1.454M7.646.067c-.786-.172-1.615-.01-2.399.47l-.013.008-2.76 1.786A4.882 4.882 0 0 0 .396 5.05C-.18 6.93-.008 8.847.171 10.124c.44 3.14 1.463 6.18 3.218 9.565 2.146 4.106 5.04 7.607 8.603 10.407 1.372 1.06 3.229 2.357 5.438 2.991.135.037.278.075.41.104 1.505.33 2.886.064 4.107-.786.01-.01.016-.019.026-.021l.01-.01c.414-.323.862-.599 1.336-.892l.103-.063c.423-.257.746-.463 1.048-.666.783-.524 1.29-1.221 1.464-2.016.175-.801-.001-1.64-.51-2.426l-2.85-4.465c-.485-.791-1.16-1.301-1.954-1.475-.791-.173-1.626.004-2.418.511H18.2l-2.625 1.677-.06-.05c-.1-.087-.201-.17-.299-.251l-.154-.127c-.214-.174-.417-.337-.586-.502-1.705-1.69-3.144-3.722-4.401-6.213-.606-1.242-.97-2.244-1.183-3.252l-.017-.074.065-.038c.59-.342 1.154-.708 1.698-1.063l.173-.113c.117-.074.234-.15.35-.227l.334-.216c1.65-1.057 2.032-2.806.976-4.456l-1.444-2.253c-.153-.239-.311-.486-.456-.73-.302-.488-.63-1.01-.976-1.504C9.103.73 8.43.238 7.646.067" fill="#FFB606" fill-rule="evenodd"/></svg>