<?xml version="1.0" encoding="UTF-8"?><svg width="36" height="44" viewBox="-5 -5 36 44" xmlns="http://www.w3.org/2000/svg"><title>phone</title><path d="M7.639.136c-.785-.172-1.612-.01-2.392.468l-.014.01-2.754 1.78A4.873 4.873 0 0 0 .407 5.107C-.168 6.984.003 8.895.182 10.169c.44 3.132 1.46 6.164 3.21 9.542 2.14 4.096 5.028 7.589 8.584 10.382 1.367 1.056 3.22 2.351 5.424 2.984.134.037.277.075.409.103 1.5.33 2.88.064 4.096-.784.01-.01.017-.018.028-.021l.01-.009c.412-.323.859-.598 1.332-.89l.102-.063c.422-.257.745-.462 1.046-.665.781-.523 1.286-1.218 1.46-2.011.175-.8 0-1.636-.508-2.42l-2.843-4.455c-.484-.789-1.158-1.298-1.95-1.471-.788-.173-1.623.004-2.413.51l-2.62 1.673-.06-.05c-.1-.087-.2-.17-.298-.25l-.153-.127c-.215-.174-.416-.337-.585-.501-1.7-1.686-3.136-3.713-4.39-6.198-.604-1.239-.968-2.239-1.181-3.244l-.016-.074.066-.038c.587-.34 1.149-.707 1.692-1.06l.173-.113.35-.226c.11-.073.221-.145.332-.216 1.645-1.055 2.028-2.8.973-4.446l-1.44-2.247c-.152-.238-.31-.485-.455-.728a32.084 32.084 0 0 0-.972-1.501C9.092.797 8.42.307 7.639.135m1.548 3.787l.241.385c.083.13.166.263.248.397L11.09 6.91c.578.902.42 1.622-.482 2.2l-.23.15c-.156.1-.31.2-.467.297a35.187 35.187 0 0 1-2.042 1.267l-.016.012c-.623.399-.667.897-.627 1.332l.006.063c.216 1.212.638 2.426 1.368 3.93 1.34 2.66 2.875 4.826 4.7 6.63.233.23.487.435.711.616.215.173.418.337.587.502l.035.031.027.026c.189.152.372.244.577.289.509.111.901-.14 1.03-.223l2.766-1.772c.293-.188.737-.39 1.19-.292.486.107.783.512.916.744l2.863 4.467c.562.868.397 1.636-.477 2.22-.265.185-.53.349-.81.522l-.18.113c-.508.308-1.047.647-1.563 1.04-.04.028-.08.054-.12.08-.823.528-1.681.669-2.691.448-.097-.022-.208-.046-.31-.075-1.963-.564-3.634-1.74-4.87-2.703-3.372-2.653-6.11-5.966-8.14-9.847-1.667-3.227-2.635-6.097-3.044-9.033-.257-1.795-.205-3.14.17-4.36a3.22 3.22 0 0 1 1.39-1.828L6.114 1.99c.422-.252.832-.342 1.19-.264.451.099.756.447.933.722l.015.025c.338.49.66 1.006.935 1.45" fill-rule="nonzero" fill="#FFB606"/></svg>