<?xml version="1.0" encoding="utf-8"?><svg width="46" height="46" viewBox="-5 -5 46 46" xmlns="http://www.w3.org/2000/svg" xmlns:xlink="http://www.w3.org/1999/xlink"><title>play-circle-xsmall</title><desc>Created using Figma</desc><g transform="translate(-2562 435)"><clipPath id="bxa" clip-rule="evenodd"><path d="M2562-435h36v36h-36v-36z" fill="#FFF"/></clipPath><g clip-path="url(#bxa)"><use xlink:href="#bxb" transform="translate(2562 -435)" fill="#F6F6F6"/><use xlink:href="#bxc" transform="translate(2564 -433)" fill="#ffdb86"/></g></g><defs><path id="bxb" d="M18 36C8.075 36 0 27.925 0 18S8.075 0 18 0s18 8.075 18 18-8.075 18-18 18z"/><path id="bxc" fill-rule="evenodd" d="M0 16c0 8.822 7.177 16 16 16s16-7.178 16-16S24.823 0 16 0 0 7.178 0 16zm22.298-.073l-8.9-8.438a.559.559 0 0 0-.394-.156.585.585 0 0 0-.395.156.514.514 0 0 0-.164.399l.002 16.892c.01.12.065.237.163.33a.575.575 0 0 0 .393.156.56.56 0 0 0 .393-.157l8.898-8.437a.508.508 0 0 0 .004-.745z"/></defs></svg>