<?xml version="1.0" encoding="utf-8"?><svg width="58" height="58" viewBox="-5 -5 58 58" xmlns="http://www.w3.org/2000/svg" xmlns:xlink="http://www.w3.org/1999/xlink"><title>play-circle-small</title><desc>Created using Figma</desc><g transform="translate(-1221 -820)"><clipPath id="bwa" clip-rule="evenodd"><path d="M1221 820h48v48h-48v-48z" fill="#FFF"/></clipPath><g clip-path="url(#bwa)"><use xlink:href="#bwb" transform="translate(1221 820)" fill="#F6F6F6"/><use xlink:href="#bwc" transform="translate(1223.67 822.667)" fill="#ffdb86"/></g></g><defs><path id="bwb" d="M24 48C10.766 48 0 37.233 0 24S10.766 0 24 0s24 10.767 24 24-10.766 24-24 24z"/><path id="bwc" fill-rule="evenodd" d="M0 21.333c0 11.764 9.57 21.334 21.333 21.334 11.764 0 21.334-9.57 21.334-21.334C42.667 9.57 33.097 0 21.333 0 9.57 0 0 9.57 0 21.333zm29.731-.097L17.865 9.986a.748.748 0 0 0-.526-.208.779.779 0 0 0-.527.207.685.685 0 0 0-.219.532l.003 22.523c.015.16.087.316.217.439.143.136.336.21.524.21.187 0 .38-.068.524-.21l11.865-11.25a.678.678 0 0 0 .005-.993z"/></defs></svg>