<?xml version="1.0" encoding="UTF-8"?><svg width="36" height="35" viewBox="-5 -5 36 35" xmlns="http://www.w3.org/2000/svg"><title>search black</title><path d="M2.15 10.66c0-5.056 4.113-9.163 9.163-9.163 5.055 0 9.163 4.113 9.163 9.163s-4.108 9.168-9.163 9.168c-5.05 0-9.163-4.113-9.163-9.168m23.287 13.065l-6.075-6.075a10.616 10.616 0 0 0 2.616-6.99C21.978 4.778 17.194 0 11.318 0 5.437 0 .658 4.784.658 10.66c0 5.875 4.784 10.66 10.66 10.66 2.672 0 5.117-.987 6.99-2.617l6.076 6.075a.753.753 0 0 0 .526.222.75.75 0 0 0 .527-1.275" fill="#000" fill-rule="evenodd"/></svg>