<?xml version="1.0" encoding="UTF-8"?><svg width="42" height="35" viewBox="-5 -5 42 35" xmlns="http://www.w3.org/2000/svg"><title>speech-bubbles</title><path d="M25.039 21.923a1.74 1.74 0 0 0-1.223.197l-.037.022a7.72 7.72 0 0 1-1.123.594c-2.244.98-4.715 1.074-6.957.262a8.498 8.498 0 0 1-3.824-2.742c4.269-.3 8.036-3.1 9.196-7.28.636-2.292.413-4.69-.619-6.853 3.076.3 5.857 2.115 7.138 5.014 1.005 2.3.9 4.945-.284 7.251-.368.697-.308 1.609.158 2.385l1.13 1.846-3.555-.696zM9.316 18.657a9.612 9.612 0 0 1-.773-.179 7.756 7.756 0 0 1-1.196-.429l-.04-.017a1.733 1.733 0 0 0-1.233-.024l-3.427 1.191.861-1.992c.35-.829.281-1.74-.176-2.371-1.502-2.123-1.979-4.727-1.309-7.143 1.066-3.78 4.643-6.24 8.58-6.24.847 0 1.71.114 2.567.352a9.434 9.434 0 0 1 4.673 2.953c.328.385.627.796.89 1.234l.065.115c1.165 2.007 1.476 4.302.871 6.481-1.061 3.827-4.7 6.297-8.692 6.24a9.552 9.552 0 0 1-1.66-.171zm19.391 1.362c-.194-.323-.242-.714-.112-.96 1.39-2.703 1.508-5.803.326-8.507-1.642-3.716-5.373-5.915-9.347-5.927-1.43-2.046-3.538-3.533-6.015-4.22C7.937-1.156 2.135 1.936.623 7.301c-.789 2.84-.234 5.893 1.527 8.38.16.222.168.607.022.954L0 21.659l6.556-2.28a.278.278 0 0 1 .2-.001c.407.188.877.357 1.398.501.648.18 1.298.297 1.943.357 1.159 1.896 2.931 3.341 5.108 4.129 1.17.424 2.394.635 3.622.635 1.493 0 2.993-.312 4.411-.932.495-.217.937-.45 1.313-.693a.285.285 0 0 1 .204-.026l6.806 1.332-2.854-4.662z" fill="#000" fill-rule="evenodd"/></svg>