<?xml version="1.0" encoding="UTF-8"?><svg width="63" height="63" viewBox="-5 -5 63 63" xmlns="http://www.w3.org/2000/svg"><title>twitter-circle-torquoise-dark</title><g fill="#FFB606" fill-rule="evenodd"><path d="M37.456 19.568c.821-.477 2.039-2.04 2.34-3.282-.79.543-2.605 1.335-3.503 1.335-1.022-1.147-2.459-1.864-4.056-1.864-3.099 0-5.61 2.705-5.61 6.043 0 .463.05.913.143 1.346-4.204-.116-9.12-2.385-11.89-6.269-1.7 3.172-.229 6.7 1.703 7.984-.66.055-1.877-.081-2.45-.68-.04 2.103.9 4.892 4.329 5.903-.662.384-1.827.274-2.338.19.18 1.779 2.49 4.103 5.016 4.103-.9 1.12-3.97 3.156-7.77 2.507 2.58 1.694 5.59 2.673 8.778 2.673 9.053 0 16.081-7.9 15.704-17.647-.002-.06 0-.087 0-.11l-.002-.091a10.082 10.082 0 0 0 2.719-3.092c-.459.273-1.831.815-3.113.951z"/><path d="M26.476 3.151c-12.86 0-23.325 10.464-23.325 23.326s10.464 23.326 23.325 23.326c12.863 0 23.327-10.464 23.327-23.326S39.34 3.151 26.476 3.151m0 49.803C11.877 52.954 0 41.077 0 26.477S11.877 0 26.476 0c14.601 0 26.479 11.878 26.479 26.477 0 14.6-11.878 26.477-26.479 26.477"/></g></svg>