<?xml version="1.0" encoding="UTF-8"?><svg width="44" height="39" viewBox="-5 -5 44 39" xmlns="http://www.w3.org/2000/svg"><title>twitter</title><g transform="translate(1 1)" fill="none" fill-rule="evenodd"><path d="M31.694 3.19a.597.597 0 0 0-.703.019c-.272.209-.712.374-1.187.502 1.236-1.409 1.263-2.35 1.25-2.566a.614.614 0 0 0-.346-.517.595.595 0 0 0-.612.06 6.35 6.35 0 0 1-3.6 1.266A6.626 6.626 0 0 0 21.84.05c-3.742 0-6.786 3.137-6.786 6.992 0 .332.023.663.068.99C8.638 7.959 3.371 1.64 3.317 1.574a.6.6 0 0 0-.987.087c-1.866 3.292-.617 6.183.524 7.84a3.955 3.955 0 0 1-.463-.292.596.596 0 0 0-.628-.058.617.617 0 0 0-.337.541c-.05 3.137 1.434 4.934 2.83 5.928a.603.603 0 0 0-.504.195.62.62 0 0 0-.133.595c.964 3.21 3.333 4.301 4.84 4.671C5.36 23.533.8 22.743.75 22.735a.602.602 0 0 0-.66.357.62.62 0 0 0 .187.735c3.27 2.538 7.182 3.1 10.008 3.1 2.137 0 3.654-.322 3.799-.354 14.312-3.45 14.715-16.78 14.682-18.964 2.687-2.541 3.107-3.509 3.171-3.748a.618.618 0 0 0-.243-.672m-3.948 3.707a.62.62 0 0 0-.194.493c.038.59.77 14.491-13.735 17.986-.066.015-5.832 1.238-10.83-1.28 2.112-.06 5.14-.622 7.25-3.03a.62.62 0 0 0 .099-.663.603.603 0 0 0-.55-.36H9.78c-.03.02-3.201-.004-4.653-3.072.584.034 1.306-.003 1.88-.272a.617.617 0 0 0-.129-1.159c-.162-.035-3.693-.837-4.187-4.754.536.239 1.221.433 1.899.328a.607.607 0 0 0 .49-.436.621.621 0 0 0-.184-.635C4.745 9.908 1.429 6.912 3 3.047 4.708 4.867 9.763 9.6 15.888 9.242a.604.604 0 0 0 .452-.25.625.625 0 0 0 .1-.513 6.005 6.005 0 0 1-.176-1.437c0-3.179 2.503-5.765 5.579-5.765a5.45 5.45 0 0 1 3.973 1.72.6.6 0 0 0 .423.187c.64.009 1.693-.068 2.882-.552-.344.434-.847.954-1.588 1.546a.62.62 0 0 0-.19.707.602.602 0 0 0 .611.388c.14-.012.858-.076 1.67-.254a34.66 34.66 0 0 1-1.878 1.877" fill="#FFB606" fill-rule="nonzero"/><path d="M31.694 3.19a.597.597 0 0 0-.703.019c-.272.209-.712.374-1.187.502 1.236-1.409 1.263-2.35 1.25-2.566a.614.614 0 0 0-.346-.517.595.595 0 0 0-.612.06 6.35 6.35 0 0 1-3.6 1.266A6.626 6.626 0 0 0 21.84.05c-3.742 0-6.786 3.137-6.786 6.992 0 .332.023.663.068.99C8.638 7.959 3.371 1.64 3.317 1.574a.6.6 0 0 0-.987.087c-1.866 3.292-.617 6.183.524 7.84a3.955 3.955 0 0 1-.463-.292.596.596 0 0 0-.628-.058.617.617 0 0 0-.337.541c-.05 3.137 1.434 4.934 2.83 5.928a.603.603 0 0 0-.504.195.62.62 0 0 0-.133.595c.964 3.21 3.333 4.301 4.84 4.671C5.36 23.533.8 22.743.75 22.735a.602.602 0 0 0-.66.357.62.62 0 0 0 .187.735c3.27 2.538 7.182 3.1 10.008 3.1 2.137 0 3.654-.322 3.799-.354 14.312-3.45 14.715-16.78 14.682-18.964 2.687-2.541 3.107-3.509 3.171-3.748a.618.618 0 0 0-.243-.672zm-3.948 3.706a.62.62 0 0 0-.194.493c.038.59.77 14.491-13.735 17.986-.066.015-5.832 1.238-10.83-1.28 2.112-.06 5.14-.622 7.25-3.03a.62.62 0 0 0 .099-.663.603.603 0 0 0-.55-.36H9.78c-.03.02-3.201-.004-4.653-3.072.584.034 1.306-.003 1.88-.272a.617.617 0 0 0-.129-1.159c-.162-.035-3.693-.837-4.187-4.754.536.239 1.221.433 1.899.328a.607.607 0 0 0 .49-.436.621.621 0 0 0-.184-.635C4.745 9.908 1.429 6.912 3 3.047 4.708 4.867 9.763 9.6 15.888 9.242a.604.604 0 0 0 .452-.25.625.625 0 0 0 .1-.513 6.005 6.005 0 0 1-.176-1.437c0-3.179 2.503-5.765 5.579-5.765a5.45 5.45 0 0 1 3.973 1.72.6.6 0 0 0 .423.187c.64.009 1.693-.068 2.882-.552-.344.434-.847.954-1.588 1.546a.62.62 0 0 0-.19.707.602.602 0 0 0 .611.388c.14-.012.858-.076 1.67-.254a34.66 34.66 0 0 1-1.878 1.877z" stroke="#FFB606" stroke-width=".5"/></g></svg>