<?xml version="1.0" encoding="UTF-8"?><svg width="38" height="37" viewBox="-5 -5 38 37" xmlns="http://www.w3.org/2000/svg" xmlns:xlink="http://www.w3.org/1999/xlink"><title>watch</title><defs><path id="cha" d="M13.967.95H0V28h27.934V.95H13.967z"/></defs><g transform="translate(0 -1)" fill="none" fill-rule="evenodd"><g transform="translate(0 .05)"><mask id="chb" fill="#fff"><use xlink:href="#cha"/></mask><path d="M13.967 28c7.72 0 13.967-6.074 13.967-13.525C27.934 6.999 21.662.95 13.967.95S0 6.999 0 14.475C0 21.926 6.247 28 13.967 28m0-25.158c6.634 0 12.013 5.209 12.013 11.633 0 6.424-5.38 11.633-12.013 11.633-6.634 0-12.013-5.233-12.013-11.633 0-6.424 5.379-11.633 12.013-11.633" fill="#FFB606" mask="url(#chb)"/></g><path d="M13.316 16.114h4.656c.555 0 .988-.42.988-.958 0-.537-.433-.958-.988-.958h-3.667v-5.56c0-.537-.434-.958-.99-.958-.554 0-.988.421-.988.958v6.518c0 .537.434.958.989.958" fill="#FFB606"/></g></svg>